<?xml version="1.0" encoding="windows-1252" standalone="no"?>
<svg xmlns="http://www.w3.org/2000/svg" xmlns:xlink="http://www.w3.org/1999/xlink" contentStyleType="text/css" height="248px" preserveAspectRatio="none" style="width:1016px;height:248px;background:#FFFFFF;" version="1.1" viewBox="0 0 1016 248" width="1016px" zoomAndPan="magnify"><defs/><g><!--class MenuBarFacade--><g id="elem_MenuBarFacade"><rect codeLine="5" fill="#FFFFFF" height="76.5938" id="MenuBarFacade" rx="2.5" ry="2.5" style="stroke:#000000;stroke-width:1.0;" width="212" x="256.5" y="20"/><ellipse cx="302.75" cy="34" fill="#FFFFFF" rx="9" ry="9" style="stroke:#000000;stroke-width:1.0;"/><path d="M305.0938,29.6719 C304.1563,29.2344 303.5625,29.0938 302.6875,29.0938 C300.0625,29.0938 298.0625,31.1719 298.0625,33.8906 L298.0625,35.0156 C298.0625,37.5938 300.1719,39.4844 303.0625,39.4844 C304.2813,39.4844 305.4375,39.1875 306.1875,38.6406 C306.7656,38.2344 307.0938,37.7813 307.0938,37.3906 C307.0938,36.9375 306.7031,36.5469 306.2344,36.5469 C306.0156,36.5469 305.8125,36.625 305.625,36.8125 C305.1719,37.2969 305.1719,37.2969 304.9844,37.3906 C304.5625,37.6563 303.875,37.7813 303.1094,37.7813 C301.0625,37.7813 299.7656,36.6875 299.7656,34.9844 L299.7656,33.8906 C299.7656,32.1094 301.0156,30.7969 302.75,30.7969 C303.3281,30.7969 303.9375,30.9531 304.4063,31.2031 C304.8906,31.4844 305.0625,31.7031 305.1563,32.1094 C305.2188,32.5156 305.25,32.6406 305.3906,32.7656 C305.5313,32.9063 305.7656,33.0156 305.9844,33.0156 C306.25,33.0156 306.5156,32.875 306.6875,32.6563 C306.7969,32.5 306.8281,32.3125 306.8281,31.8906 L306.8281,30.4688 C306.8281,30.0313 306.8125,29.9063 306.7188,29.75 C306.5625,29.4844 306.2813,29.3438 305.9844,29.3438 C305.6875,29.3438 305.4844,29.4375 305.2656,29.75 L305.0938,29.6719 Z " fill="#000000"/><text fill="#000000" font-family="Verdana" font-size="14" lengthAdjust="spacing" textLength="112" x="320.25" y="38.8467">MenuBarFacade</text><line style="stroke:#000000;stroke-width:1.0;" x1="257.5" x2="467.5" y1="48" y2="48"/><line style="stroke:#000000;stroke-width:1.0;" x1="257.5" x2="467.5" y1="56" y2="56"/><ellipse cx="267.5" cy="69.6484" fill="#FFFFFF" rx="3" ry="3" style="stroke:#000000;stroke-width:1.0;"/><text fill="#000000" font-family="Verdana" font-size="14" lengthAdjust="spacing" textLength="188" x="274.5" y="72.9951">MenuBarFacade(Settings):</text><ellipse cx="267.5" cy="85.9453" fill="#FFFFFF" rx="3" ry="3" style="stroke:#000000;stroke-width:1.0;"/><text fill="#000000" font-family="Verdana" font-size="14" lengthAdjust="spacing" textLength="110" x="274.5" y="89.292">get(): JMenuBar</text></g><!--class NavigationBarFacade--><g id="elem_NavigationBarFacade"><rect codeLine="9" fill="#FFFFFF" height="92.8906" id="NavigationBarFacade" rx="2.5" ry="2.5" style="stroke:#000000;stroke-width:1.0;" width="506" x="503.5" y="12"/><ellipse cx="677.75" cy="26" fill="#FFFFFF" rx="9" ry="9" style="stroke:#000000;stroke-width:1.0;"/><path d="M680.0938,21.6719 C679.1563,21.2344 678.5625,21.0938 677.6875,21.0938 C675.0625,21.0938 673.0625,23.1719 673.0625,25.8906 L673.0625,27.0156 C673.0625,29.5938 675.1719,31.4844 678.0625,31.4844 C679.2813,31.4844 680.4375,31.1875 681.1875,30.6406 C681.7656,30.2344 682.0938,29.7813 682.0938,29.3906 C682.0938,28.9375 681.7031,28.5469 681.2344,28.5469 C681.0156,28.5469 680.8125,28.625 680.625,28.8125 C680.1719,29.2969 680.1719,29.2969 679.9844,29.3906 C679.5625,29.6563 678.875,29.7813 678.1094,29.7813 C676.0625,29.7813 674.7656,28.6875 674.7656,26.9844 L674.7656,25.8906 C674.7656,24.1094 676.0156,22.7969 677.75,22.7969 C678.3281,22.7969 678.9375,22.9531 679.4063,23.2031 C679.8906,23.4844 680.0625,23.7031 680.1563,24.1094 C680.2188,24.5156 680.25,24.6406 680.3906,24.7656 C680.5313,24.9063 680.7656,25.0156 680.9844,25.0156 C681.25,25.0156 681.5156,24.875 681.6875,24.6563 C681.7969,24.5 681.8281,24.3125 681.8281,23.8906 L681.8281,22.4688 C681.8281,22.0313 681.8125,21.9063 681.7188,21.75 C681.5625,21.4844 681.2813,21.3438 680.9844,21.3438 C680.6875,21.3438 680.4844,21.4375 680.2656,21.75 L680.0938,21.6719 Z " fill="#000000"/><text fill="#000000" font-family="Verdana" font-size="14" lengthAdjust="spacing" textLength="150" x="695.25" y="30.8467">NavigationBarFacade</text><line style="stroke:#000000;stroke-width:1.0;" x1="504.5" x2="1008.5" y1="40" y2="40"/><line style="stroke:#000000;stroke-width:1.0;" x1="504.5" x2="1008.5" y1="48" y2="48"/><ellipse cx="514.5" cy="61.6484" fill="#FFFFFF" rx="3" ry="3" style="stroke:#000000;stroke-width:1.0;"/><text fill="#000000" font-family="Verdana" font-size="14" lengthAdjust="spacing" textLength="482" x="521.5" y="64.9951">NavigationBarFacade(WorkPane, WorkPane, Supplier&lt;WorkPane&gt;):</text><ellipse cx="514.5" cy="77.9453" fill="#FFFFFF" rx="3" ry="3" style="stroke:#000000;stroke-width:1.0;"/><text fill="#000000" font-family="Verdana" font-size="14" lengthAdjust="spacing" textLength="103" x="521.5" y="81.292">get(): JToolBar</text><ellipse cx="514.5" cy="94.2422" fill="#FFFFFF" rx="3" ry="3" style="stroke:#000000;stroke-width:1.0;"/><text fill="#000000" font-family="Verdana" font-size="14" lengthAdjust="spacing" textLength="332" x="521.5" y="97.5889">updateHistoryButtons(boolean, boolean): void</text></g><!--class ToolBarFacade--><g id="elem_ToolBarFacade"><rect codeLine="14" fill="#FFFFFF" height="76.5938" id="ToolBarFacade" rx="2.5" ry="2.5" style="stroke:#000000;stroke-width:1.0;" width="701" x="12" y="165"/><ellipse cx="306.25" cy="179" fill="#FFFFFF" rx="9" ry="9" style="stroke:#000000;stroke-width:1.0;"/><path d="M308.5938,174.6719 C307.6563,174.2344 307.0625,174.0938 306.1875,174.0938 C303.5625,174.0938 301.5625,176.1719 301.5625,178.8906 L301.5625,180.0156 C301.5625,182.5938 303.6719,184.4844 306.5625,184.4844 C307.7813,184.4844 308.9375,184.1875 309.6875,183.6406 C310.2656,183.2344 310.5938,182.7813 310.5938,182.3906 C310.5938,181.9375 310.2031,181.5469 309.7344,181.5469 C309.5156,181.5469 309.3125,181.625 309.125,181.8125 C308.6719,182.2969 308.6719,182.2969 308.4844,182.3906 C308.0625,182.6563 307.375,182.7813 306.6094,182.7813 C304.5625,182.7813 303.2656,181.6875 303.2656,179.9844 L303.2656,178.8906 C303.2656,177.1094 304.5156,175.7969 306.25,175.7969 C306.8281,175.7969 307.4375,175.9531 307.9063,176.2031 C308.3906,176.4844 308.5625,176.7031 308.6563,177.1094 C308.7188,177.5156 308.75,177.6406 308.8906,177.7656 C309.0313,177.9063 309.2656,178.0156 309.4844,178.0156 C309.75,178.0156 310.0156,177.875 310.1875,177.6563 C310.2969,177.5 310.3281,177.3125 310.3281,176.8906 L310.3281,175.4688 C310.3281,175.0313 310.3125,174.9063 310.2188,174.75 C310.0625,174.4844 309.7813,174.3438 309.4844,174.3438 C309.1875,174.3438 308.9844,174.4375 308.7656,174.75 L308.5938,174.6719 Z " fill="#000000"/><text fill="#000000" font-family="Verdana" font-size="14" lengthAdjust="spacing" textLength="105" x="323.75" y="183.8467">ToolBarFacade</text><line style="stroke:#000000;stroke-width:1.0;" x1="13" x2="712" y1="193" y2="193"/><line style="stroke:#000000;stroke-width:1.0;" x1="13" x2="712" y1="201" y2="201"/><ellipse cx="23" cy="214.6484" fill="#FFFFFF" rx="3" ry="3" style="stroke:#000000;stroke-width:1.0;"/><text fill="#000000" font-family="Verdana" font-size="14" lengthAdjust="spacing" textLength="677" x="30" y="217.9951">ToolBarFacade(Component, OperationExecutor, Supplier&lt;WorkPane&gt;, Supplier&lt;WorkPane&gt;):</text><ellipse cx="23" cy="230.9453" fill="#FFFFFF" rx="3" ry="3" style="stroke:#000000;stroke-width:1.0;"/><text fill="#000000" font-family="Verdana" font-size="14" lengthAdjust="spacing" textLength="103" x="30" y="234.292">get(): JToolBar</text></g><!--SRC=[bOz1ImD138NlyolYRSJz1L8yL1GHj485p-bks8RE9iDCfbYa_ztPiYfRUl7sU4dU-t9bMne8Oa0MPnh153PgfWDqdAWrLd5vnn8nuG21XUmG2JJPLfrh0-OCBoHbYUaHM-m8lXp0pTppQp9ZwVFrBPocFPcl-ddQSiSfwHNttEDOUfvtOU8_DEtUKAY1FxKkCGQcjFYnxiuxtrN3s3bw9NPezCJPD1sMfVujsM_g0g4qC8bwj5VkVY6dW1dUpFFtEaGL4cjW5IcTi1y-gIsrvXBYVx2Ftm00]--></g></svg>