<?xml version="1.0" encoding="windows-1252" standalone="no"?>
<svg xmlns="http://www.w3.org/2000/svg" xmlns:xlink="http://www.w3.org/1999/xlink" contentStyleType="text/css" height="827px" preserveAspectRatio="none" style="width:1070px;height:827px;background:#FFFFFF;" version="1.1" viewBox="0 0 1070 827" width="1070px" zoomAndPan="magnify"><defs/><g><!--class DirectoryHandle--><g id="elem_DirectoryHandle"><rect codeLine="5" fill="#FFFFFF" height="125.4844" id="DirectoryHandle" rx="2.5" ry="2.5" style="stroke:#000000;stroke-width:1.0;" width="193" x="356" y="214"/><ellipse cx="390.6" cy="228" fill="#FFFFFF" rx="9" ry="9" style="stroke:#000000;stroke-width:1.0;"/><path d="M392.9438,223.6719 C392.0063,223.2344 391.4125,223.0938 390.5375,223.0938 C387.9125,223.0938 385.9125,225.1719 385.9125,227.8906 L385.9125,229.0156 C385.9125,231.5938 388.0219,233.4844 390.9125,233.4844 C392.1313,233.4844 393.2875,233.1875 394.0375,232.6406 C394.6156,232.2344 394.9438,231.7813 394.9438,231.3906 C394.9438,230.9375 394.5531,230.5469 394.0844,230.5469 C393.8656,230.5469 393.6625,230.625 393.475,230.8125 C393.0219,231.2969 393.0219,231.2969 392.8344,231.3906 C392.4125,231.6563 391.725,231.7813 390.9594,231.7813 C388.9125,231.7813 387.6156,230.6875 387.6156,228.9844 L387.6156,227.8906 C387.6156,226.1094 388.8656,224.7969 390.6,224.7969 C391.1781,224.7969 391.7875,224.9531 392.2563,225.2031 C392.7406,225.4844 392.9125,225.7031 393.0063,226.1094 C393.0688,226.5156 393.1,226.6406 393.2406,226.7656 C393.3813,226.9063 393.6156,227.0156 393.8344,227.0156 C394.1,227.0156 394.3656,226.875 394.5375,226.6563 C394.6469,226.5 394.6781,226.3125 394.6781,225.8906 L394.6781,224.4688 C394.6781,224.0313 394.6625,223.9063 394.5688,223.75 C394.4125,223.4844 394.1313,223.3438 393.8344,223.3438 C393.5375,223.3438 393.3344,223.4375 393.1156,223.75 L392.9438,223.6719 Z " fill="#000000"/><text fill="#000000" font-family="Verdana" font-size="14" lengthAdjust="spacing" textLength="117" x="407.4" y="232.8467">DirectoryHandle</text><line style="stroke:#000000;stroke-width:1.0;" x1="357" x2="548" y1="242" y2="242"/><text fill="#000000" font-family="Verdana" font-size="14" lengthAdjust="spacing" textLength="93" x="362" y="258.9951">name: String</text><text fill="#000000" font-family="Verdana" font-size="14" lengthAdjust="spacing" textLength="94" x="362" y="275.292">leaf: boolean</text><text fill="#000000" font-family="Verdana" font-size="14" lengthAdjust="spacing" textLength="126" x="362" y="291.5889">children: Handle[]</text><text fill="#000000" font-family="Verdana" font-size="14" lengthAdjust="spacing" textLength="181" x="362" y="307.8857">associatedIcon: IconType</text><line style="stroke:#000000;stroke-width:1.0;" x1="357" x2="548" y1="315.1875" y2="315.1875"/><ellipse cx="367" cy="328.8359" fill="#FFFFFF" rx="3" ry="3" style="stroke:#000000;stroke-width:1.0;"/><text fill="#000000" font-family="Verdana" font-size="14" lengthAdjust="spacing" textLength="157" x="374" y="332.1826">DirectoryHandle(File):</text></g><!--class FileHandle--><g id="elem_FileHandle"><rect codeLine="12" fill="#FFFFFF" height="109.1875" id="FileHandle" rx="2.5" ry="2.5" style="stroke:#000000;stroke-width:1.0;" width="172" x="252.5" y="440"/><ellipse cx="297.75" cy="454" fill="#FFFFFF" rx="9" ry="9" style="stroke:#000000;stroke-width:1.0;"/><path d="M300.0938,449.6719 C299.1563,449.2344 298.5625,449.0938 297.6875,449.0938 C295.0625,449.0938 293.0625,451.1719 293.0625,453.8906 L293.0625,455.0156 C293.0625,457.5938 295.1719,459.4844 298.0625,459.4844 C299.2813,459.4844 300.4375,459.1875 301.1875,458.6406 C301.7656,458.2344 302.0938,457.7813 302.0938,457.3906 C302.0938,456.9375 301.7031,456.5469 301.2344,456.5469 C301.0156,456.5469 300.8125,456.625 300.625,456.8125 C300.1719,457.2969 300.1719,457.2969 299.9844,457.3906 C299.5625,457.6563 298.875,457.7813 298.1094,457.7813 C296.0625,457.7813 294.7656,456.6875 294.7656,454.9844 L294.7656,453.8906 C294.7656,452.1094 296.0156,450.7969 297.75,450.7969 C298.3281,450.7969 298.9375,450.9531 299.4063,451.2031 C299.8906,451.4844 300.0625,451.7031 300.1563,452.1094 C300.2188,452.5156 300.25,452.6406 300.3906,452.7656 C300.5313,452.9063 300.7656,453.0156 300.9844,453.0156 C301.25,453.0156 301.5156,452.875 301.6875,452.6563 C301.7969,452.5 301.8281,452.3125 301.8281,451.8906 L301.8281,450.4688 C301.8281,450.0313 301.8125,449.9063 301.7188,449.75 C301.5625,449.4844 301.2813,449.3438 300.9844,449.3438 C300.6875,449.3438 300.4844,449.4375 300.2656,449.75 L300.0938,449.6719 Z " fill="#000000"/><text fill="#000000" font-family="Verdana" font-size="14" lengthAdjust="spacing" textLength="74" x="315.25" y="458.8467">FileHandle</text><line style="stroke:#000000;stroke-width:1.0;" x1="253.5" x2="423.5" y1="468" y2="468"/><text fill="#000000" font-family="Verdana" font-size="14" lengthAdjust="spacing" textLength="148" x="258.5" y="484.9951">absolutePath: String</text><text fill="#000000" font-family="Verdana" font-size="14" lengthAdjust="spacing" textLength="107" x="258.5" y="501.292">parent: Handle</text><line style="stroke:#000000;stroke-width:1.0;" x1="253.5" x2="423.5" y1="508.5938" y2="508.5938"/><polygon fill="#FFFFFF" points="263.5,517.2422,267.5,521.2422,263.5,525.2422,259.5,521.2422" style="stroke:#000000;stroke-width:1.0;"/><text fill="#000000" font-family="Verdana" font-size="14" lengthAdjust="spacing" textLength="114" x="270.5" y="525.5889">FileHandle(File):</text><ellipse cx="263.5" cy="538.5391" fill="#FFFFFF" rx="3" ry="3" style="stroke:#000000;stroke-width:1.0;"/><text fill="#000000" font-family="Verdana" font-size="14" lengthAdjust="spacing" textLength="148" x="270.5" y="541.8857">rename(String): void</text></g><!--class FileHandleBuilder--><g id="elem_FileHandleBuilder"><rect codeLine="18" fill="#FFFFFF" height="141.7813" id="FileHandleBuilder" rx="2.5" ry="2.5" style="stroke:#000000;stroke-width:1.0;" width="216" x="584.5" y="12"/><ellipse cx="626.75" cy="26" fill="#FFFFFF" rx="9" ry="9" style="stroke:#000000;stroke-width:1.0;"/><path d="M629.0938,21.6719 C628.1563,21.2344 627.5625,21.0938 626.6875,21.0938 C624.0625,21.0938 622.0625,23.1719 622.0625,25.8906 L622.0625,27.0156 C622.0625,29.5938 624.1719,31.4844 627.0625,31.4844 C628.2813,31.4844 629.4375,31.1875 630.1875,30.6406 C630.7656,30.2344 631.0938,29.7813 631.0938,29.3906 C631.0938,28.9375 630.7031,28.5469 630.2344,28.5469 C630.0156,28.5469 629.8125,28.625 629.625,28.8125 C629.1719,29.2969 629.1719,29.2969 628.9844,29.3906 C628.5625,29.6563 627.875,29.7813 627.1094,29.7813 C625.0625,29.7813 623.7656,28.6875 623.7656,26.9844 L623.7656,25.8906 C623.7656,24.1094 625.0156,22.7969 626.75,22.7969 C627.3281,22.7969 627.9375,22.9531 628.4063,23.2031 C628.8906,23.4844 629.0625,23.7031 629.1563,24.1094 C629.2188,24.5156 629.25,24.6406 629.3906,24.7656 C629.5313,24.9063 629.7656,25.0156 629.9844,25.0156 C630.25,25.0156 630.5156,24.875 630.6875,24.6563 C630.7969,24.5 630.8281,24.3125 630.8281,23.8906 L630.8281,22.4688 C630.8281,22.0313 630.8125,21.9063 630.7188,21.75 C630.5625,21.4844 630.2813,21.3438 629.9844,21.3438 C629.6875,21.3438 629.4844,21.4375 629.2656,21.75 L629.0938,21.6719 Z " fill="#000000"/><text fill="#000000" font-family="Verdana" font-size="14" lengthAdjust="spacing" textLength="124" x="644.25" y="30.8467">FileHandleBuilder</text><line style="stroke:#000000;stroke-width:1.0;" x1="585.5" x2="799.5" y1="40" y2="40"/><rect fill="none" height="6" style="stroke:#000000;stroke-width:1.0;" width="6" x="592.5" y="50.6484"/><text fill="#000000" font-family="Verdana" font-size="14" lengthAdjust="spacing" textLength="57" x="602.5" y="56.9951">file: File</text><text fill="#000000" font-family="Verdana" font-size="14" lengthAdjust="spacing" textLength="57" x="602.5" y="73.292">file: File</text><line style="stroke:#000000;stroke-width:1.0;" x1="585.5" x2="799.5" y1="80.5938" y2="80.5938"/><ellipse cx="595.5" cy="94.2422" fill="#FFFFFF" rx="3" ry="3" style="stroke:#000000;stroke-width:1.0;"/><text fill="#000000" font-family="Verdana" font-size="14" lengthAdjust="spacing" textLength="164" x="602.5" y="97.5889">FileHandleBuilder(File):</text><ellipse cx="595.5" cy="110.5391" fill="#FFFFFF" rx="3" ry="3" style="stroke:#000000;stroke-width:1.0;"/><text fill="#000000" font-family="Verdana" font-size="14" lengthAdjust="spacing" textLength="139" x="602.5" y="113.8857">FileHandleBuilder():</text><ellipse cx="595.5" cy="126.8359" fill="#FFFFFF" rx="3" ry="3" style="stroke:#000000;stroke-width:1.0;"/><text fill="#000000" font-family="Verdana" font-size="14" lengthAdjust="spacing" textLength="158" x="602.5" y="130.1826">toFileHandle(): Handle</text><ellipse cx="595.5" cy="143.1328" fill="#FFFFFF" rx="3" ry="3" style="stroke:#000000;stroke-width:1.0;"/><text fill="#000000" font-family="Verdana" font-size="14" lengthAdjust="spacing" textLength="192" x="602.5" y="146.4795">parent(): FileHandleBuilder</text></g><!--class Handle--><g id="elem_Handle"><rect codeLine="26" fill="#FFFFFF" height="170.3438" id="Handle" rx="2.5" ry="2.5" style="stroke:#000000;stroke-width:1.0;" width="193" x="130" y="650"/><ellipse cx="191.25" cy="670.1328" fill="#FFFFFF" rx="9" ry="9" style="stroke:#000000;stroke-width:1.0;"/><path d="M192.2031,666.9141 L193.9219,666.9141 C194.3125,666.9141 194.5,666.8828 194.625,666.8047 C194.8906,666.6484 195.0313,666.3672 195.0313,666.0703 C195.0313,665.8047 194.9219,665.5391 194.6875,665.3672 C194.5156,665.2578 194.375,665.2266 193.9219,665.2266 L188.7813,665.2266 C188.3438,665.2266 188.2188,665.2422 188.0625,665.3359 C187.8125,665.4922 187.6563,665.7891 187.6563,666.0703 C187.6563,666.3516 187.7969,666.6016 188.0156,666.7734 C188.1719,666.8828 188.3594,666.9141 188.7813,666.9141 L190.5,666.9141 L190.5,673.4297 L188.7813,673.4297 C188.3438,673.4297 188.2188,673.4453 188.0625,673.5547 C187.8125,673.7109 187.6563,673.9922 187.6563,674.2891 C187.6563,674.5391 187.7969,674.8047 188.0156,674.9609 C188.1719,675.0859 188.375,675.1328 188.7813,675.1328 L193.9219,675.1328 C194.6719,675.1328 195.0313,674.8516 195.0313,674.2891 C195.0313,674.0078 194.9219,673.7578 194.6875,673.5859 C194.5156,673.4609 194.375,673.4297 193.9219,673.4297 L192.2031,673.4297 L192.2031,666.9141 Z " fill="#000000"/><text fill="#000000" font-family="Verdana" font-size="12" font-style="italic" lengthAdjust="spacing" textLength="67" x="206.75" y="666.1387">«interface»</text><text fill="#000000" font-family="Verdana" font-size="14" font-style="italic" lengthAdjust="spacing" textLength="51" x="214.75" y="681.9639">Handle</text><line style="stroke:#000000;stroke-width:1.0;" x1="131" x2="322" y1="690.2656" y2="690.2656"/><text fill="#000000" font-family="Verdana" font-size="14" lengthAdjust="spacing" textLength="93" x="136" y="707.2607">name: String</text><text fill="#000000" font-family="Verdana" font-size="14" lengthAdjust="spacing" textLength="148" x="136" y="723.5576">absolutePath: String</text><text fill="#000000" font-family="Verdana" font-size="14" lengthAdjust="spacing" textLength="107" x="136" y="739.8545">parent: Handle</text><text fill="#000000" font-family="Verdana" font-size="14" lengthAdjust="spacing" textLength="94" x="136" y="756.1514">leaf: boolean</text><text fill="#000000" font-family="Verdana" font-size="14" lengthAdjust="spacing" textLength="126" x="136" y="772.4482">children: Handle[]</text><text fill="#000000" font-family="Verdana" font-size="14" lengthAdjust="spacing" textLength="181" x="136" y="788.7451">associatedIcon: IconType</text><line style="stroke:#000000;stroke-width:1.0;" x1="131" x2="322" y1="796.0469" y2="796.0469"/><ellipse cx="141" cy="809.6953" fill="#FFFFFF" rx="3" ry="3" style="stroke:#000000;stroke-width:1.0;"/><text fill="#000000" font-family="Verdana" font-size="14" lengthAdjust="spacing" textLength="148" x="148" y="813.042">rename(String): void</text></g><!--class MountHandle--><g id="elem_MountHandle"><rect codeLine="35" fill="#FFFFFF" height="125.4844" id="MountHandle" rx="2.5" ry="2.5" style="stroke:#000000;stroke-width:1.0;" width="193" x="356" y="20.5"/><ellipse cx="401.75" cy="34.5" fill="#FFFFFF" rx="9" ry="9" style="stroke:#000000;stroke-width:1.0;"/><path d="M404.0938,30.1719 C403.1563,29.7344 402.5625,29.5938 401.6875,29.5938 C399.0625,29.5938 397.0625,31.6719 397.0625,34.3906 L397.0625,35.5156 C397.0625,38.0938 399.1719,39.9844 402.0625,39.9844 C403.2813,39.9844 404.4375,39.6875 405.1875,39.1406 C405.7656,38.7344 406.0938,38.2813 406.0938,37.8906 C406.0938,37.4375 405.7031,37.0469 405.2344,37.0469 C405.0156,37.0469 404.8125,37.125 404.625,37.3125 C404.1719,37.7969 404.1719,37.7969 403.9844,37.8906 C403.5625,38.1563 402.875,38.2813 402.1094,38.2813 C400.0625,38.2813 398.7656,37.1875 398.7656,35.4844 L398.7656,34.3906 C398.7656,32.6094 400.0156,31.2969 401.75,31.2969 C402.3281,31.2969 402.9375,31.4531 403.4063,31.7031 C403.8906,31.9844 404.0625,32.2031 404.1563,32.6094 C404.2188,33.0156 404.25,33.1406 404.3906,33.2656 C404.5313,33.4063 404.7656,33.5156 404.9844,33.5156 C405.25,33.5156 405.5156,33.375 405.6875,33.1563 C405.7969,33 405.8281,32.8125 405.8281,32.3906 L405.8281,30.9688 C405.8281,30.5313 405.8125,30.4063 405.7188,30.25 C405.5625,29.9844 405.2813,29.8438 404.9844,29.8438 C404.6875,29.8438 404.4844,29.9375 404.2656,30.25 L404.0938,30.1719 Z " fill="#000000"/><text fill="#000000" font-family="Verdana" font-size="14" lengthAdjust="spacing" textLength="94" x="419.25" y="39.3467">MountHandle</text><line style="stroke:#000000;stroke-width:1.0;" x1="357" x2="548" y1="48.5" y2="48.5"/><text fill="#000000" font-family="Verdana" font-size="14" lengthAdjust="spacing" textLength="93" x="362" y="65.4951">name: String</text><text fill="#000000" font-family="Verdana" font-size="14" lengthAdjust="spacing" textLength="181" x="362" y="81.792">associatedIcon: IconType</text><text fill="#000000" font-family="Verdana" font-size="14" lengthAdjust="spacing" textLength="107" x="362" y="98.0889">parent: Handle</text><line style="stroke:#000000;stroke-width:1.0;" x1="357" x2="548" y1="105.3906" y2="105.3906"/><ellipse cx="367" cy="119.0391" fill="#FFFFFF" rx="3" ry="3" style="stroke:#000000;stroke-width:1.0;"/><text fill="#000000" font-family="Verdana" font-size="14" lengthAdjust="spacing" textLength="134" x="374" y="122.3857">MountHandle(File):</text><ellipse cx="367" cy="135.3359" fill="#FFFFFF" rx="3" ry="3" style="stroke:#000000;stroke-width:1.0;"/><text fill="#000000" font-family="Verdana" font-size="14" lengthAdjust="spacing" textLength="148" x="374" y="138.6826">rename(String): void</text></g><!--class RegularFileHandle--><g id="elem_RegularFileHandle"><rect codeLine="42" fill="#FFFFFF" height="125.4844" id="RegularFileHandle" rx="2.5" ry="2.5" style="stroke:#000000;stroke-width:1.0;" width="193" x="128" y="214"/><ellipse cx="157.65" cy="228" fill="#FFFFFF" rx="9" ry="9" style="stroke:#000000;stroke-width:1.0;"/><path d="M159.9938,223.6719 C159.0563,223.2344 158.4625,223.0938 157.5875,223.0938 C154.9625,223.0938 152.9625,225.1719 152.9625,227.8906 L152.9625,229.0156 C152.9625,231.5938 155.0719,233.4844 157.9625,233.4844 C159.1813,233.4844 160.3375,233.1875 161.0875,232.6406 C161.6656,232.2344 161.9938,231.7813 161.9938,231.3906 C161.9938,230.9375 161.6031,230.5469 161.1344,230.5469 C160.9156,230.5469 160.7125,230.625 160.525,230.8125 C160.0719,231.2969 160.0719,231.2969 159.8844,231.3906 C159.4625,231.6563 158.775,231.7813 158.0094,231.7813 C155.9625,231.7813 154.6656,230.6875 154.6656,228.9844 L154.6656,227.8906 C154.6656,226.1094 155.9156,224.7969 157.65,224.7969 C158.2281,224.7969 158.8375,224.9531 159.3063,225.2031 C159.7906,225.4844 159.9625,225.7031 160.0563,226.1094 C160.1188,226.5156 160.15,226.6406 160.2906,226.7656 C160.4313,226.9063 160.6656,227.0156 160.8844,227.0156 C161.15,227.0156 161.4156,226.875 161.5875,226.6563 C161.6969,226.5 161.7281,226.3125 161.7281,225.8906 L161.7281,224.4688 C161.7281,224.0313 161.7125,223.9063 161.6188,223.75 C161.4625,223.4844 161.1813,223.3438 160.8844,223.3438 C160.5875,223.3438 160.3844,223.4375 160.1656,223.75 L159.9938,223.6719 Z " fill="#000000"/><text fill="#000000" font-family="Verdana" font-size="14" lengthAdjust="spacing" textLength="128" x="173.35" y="232.8467">RegularFileHandle</text><line style="stroke:#000000;stroke-width:1.0;" x1="129" x2="320" y1="242" y2="242"/><text fill="#000000" font-family="Verdana" font-size="14" lengthAdjust="spacing" textLength="93" x="134" y="258.9951">name: String</text><text fill="#000000" font-family="Verdana" font-size="14" lengthAdjust="spacing" textLength="94" x="134" y="275.292">leaf: boolean</text><text fill="#000000" font-family="Verdana" font-size="14" lengthAdjust="spacing" textLength="126" x="134" y="291.5889">children: Handle[]</text><text fill="#000000" font-family="Verdana" font-size="14" lengthAdjust="spacing" textLength="181" x="134" y="307.8857">associatedIcon: IconType</text><line style="stroke:#000000;stroke-width:1.0;" x1="129" x2="320" y1="315.1875" y2="315.1875"/><ellipse cx="139" cy="328.8359" fill="#FFFFFF" rx="3" ry="3" style="stroke:#000000;stroke-width:1.0;"/><text fill="#000000" font-family="Verdana" font-size="14" lengthAdjust="spacing" textLength="168" x="146" y="332.1826">RegularFileHandle(File):</text></g><!--class RenamingException--><g id="elem_RenamingException"><rect codeLine="49" fill="#FFFFFF" height="60.2969" id="RenamingException" rx="2.5" ry="2.5" style="stroke:#000000;stroke-width:1.0;" width="228" x="835.5" y="53"/><ellipse cx="873.25" cy="67" fill="#FFFFFF" rx="9" ry="9" style="stroke:#000000;stroke-width:1.0;"/><path d="M875.5938,62.6719 C874.6563,62.2344 874.0625,62.0938 873.1875,62.0938 C870.5625,62.0938 868.5625,64.1719 868.5625,66.8906 L868.5625,68.0156 C868.5625,70.5938 870.6719,72.4844 873.5625,72.4844 C874.7813,72.4844 875.9375,72.1875 876.6875,71.6406 C877.2656,71.2344 877.5938,70.7813 877.5938,70.3906 C877.5938,69.9375 877.2031,69.5469 876.7344,69.5469 C876.5156,69.5469 876.3125,69.625 876.125,69.8125 C875.6719,70.2969 875.6719,70.2969 875.4844,70.3906 C875.0625,70.6563 874.375,70.7813 873.6094,70.7813 C871.5625,70.7813 870.2656,69.6875 870.2656,67.9844 L870.2656,66.8906 C870.2656,65.1094 871.5156,63.7969 873.25,63.7969 C873.8281,63.7969 874.4375,63.9531 874.9063,64.2031 C875.3906,64.4844 875.5625,64.7031 875.6563,65.1094 C875.7188,65.5156 875.75,65.6406 875.8906,65.7656 C876.0313,65.9063 876.2656,66.0156 876.4844,66.0156 C876.75,66.0156 877.0156,65.875 877.1875,65.6563 C877.2969,65.5 877.3281,65.3125 877.3281,64.8906 L877.3281,63.4688 C877.3281,63.0313 877.3125,62.9063 877.2188,62.75 C877.0625,62.4844 876.7813,62.3438 876.4844,62.3438 C876.1875,62.3438 875.9844,62.4375 875.7656,62.75 L875.5938,62.6719 Z " fill="#000000"/><text fill="#000000" font-family="Verdana" font-size="14" lengthAdjust="spacing" textLength="145" x="890.75" y="71.8467">RenamingException</text><line style="stroke:#000000;stroke-width:1.0;" x1="836.5" x2="1062.5" y1="81" y2="81"/><line style="stroke:#000000;stroke-width:1.0;" x1="836.5" x2="1062.5" y1="89" y2="89"/><ellipse cx="846.5" cy="102.6484" fill="#FFFFFF" rx="3" ry="3" style="stroke:#000000;stroke-width:1.0;"/><text fill="#000000" font-family="Verdana" font-size="14" lengthAdjust="spacing" textLength="204" x="853.5" y="105.9951">RenamingException(String):</text></g><!--class RootHandle--><g id="elem_RootHandle"><rect codeLine="52" fill="#FFFFFF" height="190.6719" id="RootHandle" rx="2.5" ry="2.5" style="stroke:#000000;stroke-width:1.0;" width="205" x="12" y="399"/><ellipse cx="68.75" cy="413" fill="#FFFFFF" rx="9" ry="9" style="stroke:#000000;stroke-width:1.0;"/><path d="M71.0938,408.6719 C70.1563,408.2344 69.5625,408.0938 68.6875,408.0938 C66.0625,408.0938 64.0625,410.1719 64.0625,412.8906 L64.0625,414.0156 C64.0625,416.5938 66.1719,418.4844 69.0625,418.4844 C70.2813,418.4844 71.4375,418.1875 72.1875,417.6406 C72.7656,417.2344 73.0938,416.7813 73.0938,416.3906 C73.0938,415.9375 72.7031,415.5469 72.2344,415.5469 C72.0156,415.5469 71.8125,415.625 71.625,415.8125 C71.1719,416.2969 71.1719,416.2969 70.9844,416.3906 C70.5625,416.6563 69.875,416.7813 69.1094,416.7813 C67.0625,416.7813 65.7656,415.6875 65.7656,413.9844 L65.7656,412.8906 C65.7656,411.1094 67.0156,409.7969 68.75,409.7969 C69.3281,409.7969 69.9375,409.9531 70.4063,410.2031 C70.8906,410.4844 71.0625,410.7031 71.1563,411.1094 C71.2188,411.5156 71.25,411.6406 71.3906,411.7656 C71.5313,411.9063 71.7656,412.0156 71.9844,412.0156 C72.25,412.0156 72.5156,411.875 72.6875,411.6563 C72.7969,411.5 72.8281,411.3125 72.8281,410.8906 L72.8281,409.4688 C72.8281,409.0313 72.8125,408.9063 72.7188,408.75 C72.5625,408.4844 72.2813,408.3438 71.9844,408.3438 C71.6875,408.3438 71.4844,408.4375 71.2656,408.75 L71.0938,408.6719 Z " fill="#000000"/><text fill="#000000" font-family="Verdana" font-size="14" lengthAdjust="spacing" textLength="84" x="86.25" y="417.8467">RootHandle</text><line style="stroke:#000000;stroke-width:1.0;" x1="13" x2="216" y1="427" y2="427"/><rect fill="none" height="6" style="stroke:#000000;stroke-width:1.0;" width="6" x="20" y="437.6484"/><text fill="#000000" font-family="Verdana" font-size="14" lengthAdjust="spacing" textLength="126" x="30" y="443.9951">children: Handle[]</text><text fill="#000000" font-family="Verdana" font-size="14" lengthAdjust="spacing" textLength="93" x="30" y="460.292">name: String</text><text fill="#000000" font-family="Verdana" font-size="14" lengthAdjust="spacing" textLength="148" x="30" y="476.5889">absolutePath: String</text><text fill="#000000" font-family="Verdana" font-size="14" lengthAdjust="spacing" textLength="107" x="30" y="492.8857">parent: Handle</text><text fill="#000000" font-family="Verdana" font-size="14" lengthAdjust="spacing" textLength="94" x="30" y="509.1826">leaf: boolean</text><text fill="#000000" font-family="Verdana" font-size="14" lengthAdjust="spacing" textLength="126" x="30" y="525.4795">children: Handle[]</text><text fill="#000000" font-family="Verdana" font-size="14" lengthAdjust="spacing" textLength="181" x="30" y="541.7764">associatedIcon: IconType</text><line style="stroke:#000000;stroke-width:1.0;" x1="13" x2="216" y1="549.0781" y2="549.0781"/><ellipse cx="23" cy="562.7266" fill="#FFFFFF" rx="3" ry="3" style="stroke:#000000;stroke-width:1.0;"/><text fill="#000000" font-family="Verdana" font-size="14" lengthAdjust="spacing" textLength="99" x="30" y="566.0732">RootHandle():</text><ellipse cx="23" cy="579.0234" fill="#FFFFFF" rx="3" ry="3" style="stroke:#000000;stroke-width:1.0;"/><text fill="#000000" font-family="Verdana" font-size="14" lengthAdjust="spacing" textLength="148" x="30" y="582.3701">rename(String): void</text></g><!--link DirectoryHandle to FileHandle--><g id="link_DirectoryHandle_FileHandle"><path codeLine="64" d="M390.25,339.262 C390.25,371.086 390.25,391.364 390.25,421.947 " fill="none" id="DirectoryHandle-to-FileHandle" style="stroke:#000082;stroke-width:1.0;"/><polygon fill="none" points="390.25,439.947,396.25,421.947,384.25,421.947,390.25,439.947" style="stroke:#000082;stroke-width:1.0;"/></g><!--link FileHandle to Handle--><g id="link_FileHandle_Handle"><path codeLine="65" d="M287.75,549.073 C287.75,578.87 287.75,598.427 287.75,631.973 " fill="none" id="FileHandle-to-Handle" style="stroke:#008200;stroke-width:1.0;stroke-dasharray:7.0,7.0;"/><polygon fill="none" points="287.75,649.973,293.75,631.973,281.75,631.973,287.75,649.973" style="stroke:#008200;stroke-width:1.0;"/></g><!--link MountHandle to DirectoryHandle--><g id="link_MountHandle_DirectoryHandle"><path codeLine="66" d="M452.5,145.557 C452.5,167.419 452.5,173.955 452.5,195.827 " fill="none" id="MountHandle-to-DirectoryHandle" style="stroke:#000082;stroke-width:1.0;"/><polygon fill="none" points="452.5,213.827,458.5,195.827,446.5,195.827,452.5,213.827" style="stroke:#000082;stroke-width:1.0;"/></g><!--link RegularFileHandle to FileHandle--><g id="link_RegularFileHandle_FileHandle"><path codeLine="67" d="M286.75,339.262 C286.75,371.086 286.75,391.364 286.75,421.947 " fill="none" id="RegularFileHandle-to-FileHandle" style="stroke:#000082;stroke-width:1.0;"/><polygon fill="none" points="286.75,439.947,292.75,421.947,280.75,421.947,286.75,439.947" style="stroke:#000082;stroke-width:1.0;"/></g><!--link RootHandle to Handle--><g id="link_RootHandle_Handle"><path codeLine="68" d="M173.5,590.243 C173.5,609.892 173.5,612.452 173.5,631.704 " fill="none" id="RootHandle-to-Handle" style="stroke:#008200;stroke-width:1.0;stroke-dasharray:7.0,7.0;"/><polygon fill="none" points="173.5,649.704,179.5,631.704,167.5,631.704,173.5,649.704" style="stroke:#008200;stroke-width:1.0;"/></g><!--SRC=[pPJ1QW8n48RlUOefNXGLn9Ciug6qfJqKYkrDBCJTiHkQpIpPRAaKtxt9xbRZHc4FfJG7qNyoyt_9ZBaoAMO8kUH2CKCv688D6KCP949ZR0GfLhmBbNFDCv12eTdb2AHDIep5aXS5t5GxIU_kkKeamXS36BRL_fsGE8Z0na3n32DuDbgeD_TR8jz6rfVi5-M4E1KoqQWYg9DNQwTQBue5DvWyn6HZxlF5qh1z0-8iF8QU9tZsGx2LBK6_1h3Y1ucaCjWK94k3JzoaFfyzF2hp0tF6xhgqlAYRamVwYNaOhIDZsDf8LCMhZOOy_C71tOLg82S6rHolLsZFX3Aejpp6fW3Cvt3K5ei6-jATj7lLyOv-iQkFL2fpCbgUqgclmHakMLxkzHBVIibrQyA6eVuNSxvqvxGrRpzZpDrVz03JqezNSSmbEhtCet0OnBDO_tD4MFlniMkywaticar7rRks7h-2_pGqYuLIdJcRJYQZX1Sf9bLgQuzBzKVIJssPXcmidAEkk5xZEk1-0m00]--></g></svg>