<?xml version="1.0" encoding="windows-1252" standalone="no"?>
<svg xmlns="http://www.w3.org/2000/svg" xmlns:xlink="http://www.w3.org/1999/xlink" contentStyleType="text/css" height="414px" preserveAspectRatio="none" style="width:772px;height:414px;background:#FFFFFF;" version="1.1" viewBox="0 0 772 414" width="772px" zoomAndPan="magnify"><defs/><g><!--class HistoryChangeListener--><g id="elem_HistoryChangeListener"><rect codeLine="5" fill="#FFFFFF" height="72.5625" id="HistoryChangeListener" rx="2.5" ry="2.5" style="stroke:#000000;stroke-width:1.0;" width="342" x="12" y="325"/><ellipse cx="98.25" cy="345.1328" fill="#FFFFFF" rx="9" ry="9" style="stroke:#000000;stroke-width:1.0;"/><path d="M99.2031,341.9141 L100.9219,341.9141 C101.3125,341.9141 101.5,341.8828 101.625,341.8047 C101.8906,341.6484 102.0313,341.3672 102.0313,341.0703 C102.0313,340.8047 101.9219,340.5391 101.6875,340.3672 C101.5156,340.2578 101.375,340.2266 100.9219,340.2266 L95.7813,340.2266 C95.3438,340.2266 95.2188,340.2422 95.0625,340.3359 C94.8125,340.4922 94.6563,340.7891 94.6563,341.0703 C94.6563,341.3516 94.7969,341.6016 95.0156,341.7734 C95.1719,341.8828 95.3594,341.9141 95.7813,341.9141 L97.5,341.9141 L97.5,348.4297 L95.7813,348.4297 C95.3438,348.4297 95.2188,348.4453 95.0625,348.5547 C94.8125,348.7109 94.6563,348.9922 94.6563,349.2891 C94.6563,349.5391 94.7969,349.8047 95.0156,349.9609 C95.1719,350.0859 95.375,350.1328 95.7813,350.1328 L100.9219,350.1328 C101.6719,350.1328 102.0313,349.8516 102.0313,349.2891 C102.0313,349.0078 101.9219,348.7578 101.6875,348.5859 C101.5156,348.4609 101.375,348.4297 100.9219,348.4297 L99.2031,348.4297 L99.2031,341.9141 Z " fill="#000000"/><text fill="#000000" font-family="Verdana" font-size="12" font-style="italic" lengthAdjust="spacing" textLength="67" x="163.25" y="341.1387">«interface»</text><text fill="#000000" font-family="Verdana" font-size="14" font-style="italic" lengthAdjust="spacing" textLength="162" x="115.75" y="356.9639">HistoryChangeListener</text><line style="stroke:#000000;stroke-width:1.0;" x1="13" x2="353" y1="365.2656" y2="365.2656"/><line style="stroke:#000000;stroke-width:1.0;" x1="13" x2="353" y1="373.2656" y2="373.2656"/><ellipse cx="23" cy="386.9141" fill="#FFFFFF" rx="3" ry="3" style="stroke:#000000;stroke-width:1.0;"/><text fill="#000000" font-family="Verdana" font-size="14" lengthAdjust="spacing" textLength="318" x="30" y="390.2607">historyChanged(HistoryChangedEvent): void</text></g><!--class HistoryChangedEvent--><g id="elem_HistoryChangedEvent"><rect codeLine="8" fill="#FFFFFF" height="92.8906" id="HistoryChangedEvent" rx="2.5" ry="2.5" style="stroke:#000000;stroke-width:1.0;" width="376" x="389" y="315"/><ellipse cx="495.25" cy="329" fill="#FFFFFF" rx="9" ry="9" style="stroke:#000000;stroke-width:1.0;"/><path d="M497.5938,324.6719 C496.6563,324.2344 496.0625,324.0938 495.1875,324.0938 C492.5625,324.0938 490.5625,326.1719 490.5625,328.8906 L490.5625,330.0156 C490.5625,332.5938 492.6719,334.4844 495.5625,334.4844 C496.7813,334.4844 497.9375,334.1875 498.6875,333.6406 C499.2656,333.2344 499.5938,332.7813 499.5938,332.3906 C499.5938,331.9375 499.2031,331.5469 498.7344,331.5469 C498.5156,331.5469 498.3125,331.625 498.125,331.8125 C497.6719,332.2969 497.6719,332.2969 497.4844,332.3906 C497.0625,332.6563 496.375,332.7813 495.6094,332.7813 C493.5625,332.7813 492.2656,331.6875 492.2656,329.9844 L492.2656,328.8906 C492.2656,327.1094 493.5156,325.7969 495.25,325.7969 C495.8281,325.7969 496.4375,325.9531 496.9063,326.2031 C497.3906,326.4844 497.5625,326.7031 497.6563,327.1094 C497.7188,327.5156 497.75,327.6406 497.8906,327.7656 C498.0313,327.9063 498.2656,328.0156 498.4844,328.0156 C498.75,328.0156 499.0156,327.875 499.1875,327.6563 C499.2969,327.5 499.3281,327.3125 499.3281,326.8906 L499.3281,325.4688 C499.3281,325.0313 499.3125,324.9063 499.2188,324.75 C499.0625,324.4844 498.7813,324.3438 498.4844,324.3438 C498.1875,324.3438 497.9844,324.4375 497.7656,324.75 L497.5938,324.6719 Z " fill="#000000"/><text fill="#000000" font-family="Verdana" font-size="14" lengthAdjust="spacing" textLength="156" x="512.75" y="333.8467">HistoryChangedEvent</text><line style="stroke:#000000;stroke-width:1.0;" x1="390" x2="764" y1="343" y2="343"/><line style="stroke:#000000;stroke-width:1.0;" x1="390" x2="764" y1="351" y2="351"/><ellipse cx="400" cy="364.6484" fill="#FFFFFF" rx="3" ry="3" style="stroke:#000000;stroke-width:1.0;"/><text fill="#000000" font-family="Verdana" font-size="14" lengthAdjust="spacing" textLength="352" x="407" y="367.9951">HistoryChangedEvent(Object, boolean, boolean):</text><ellipse cx="400" cy="380.9453" fill="#FFFFFF" rx="3" ry="3" style="stroke:#000000;stroke-width:1.0;"/><text fill="#000000" font-family="Verdana" font-size="14" lengthAdjust="spacing" textLength="138" x="407" y="384.292">canUndo(): boolean</text><ellipse cx="400" cy="397.2422" fill="#FFFFFF" rx="3" ry="3" style="stroke:#000000;stroke-width:1.0;"/><text fill="#000000" font-family="Verdana" font-size="14" lengthAdjust="spacing" textLength="139" x="407" y="400.5889">canRedo(): boolean</text></g><!--class TrackedObject--><g id="elem_TrackedObject"><rect codeLine="13" fill="#FFFFFF" height="239.5625" id="TrackedObject" rx="2.5" ry="2.5" style="stroke:#000000;stroke-width:1.0;" width="456" x="152" y="15"/><ellipse cx="317.25" cy="29" fill="#FFFFFF" rx="9" ry="9" style="stroke:#000000;stroke-width:1.0;"/><path d="M319.5938,24.6719 C318.6563,24.2344 318.0625,24.0938 317.1875,24.0938 C314.5625,24.0938 312.5625,26.1719 312.5625,28.8906 L312.5625,30.0156 C312.5625,32.5938 314.6719,34.4844 317.5625,34.4844 C318.7813,34.4844 319.9375,34.1875 320.6875,33.6406 C321.2656,33.2344 321.5938,32.7813 321.5938,32.3906 C321.5938,31.9375 321.2031,31.5469 320.7344,31.5469 C320.5156,31.5469 320.3125,31.625 320.125,31.8125 C319.6719,32.2969 319.6719,32.2969 319.4844,32.3906 C319.0625,32.6563 318.375,32.7813 317.6094,32.7813 C315.5625,32.7813 314.2656,31.6875 314.2656,29.9844 L314.2656,28.8906 C314.2656,27.1094 315.5156,25.7969 317.25,25.7969 C317.8281,25.7969 318.4375,25.9531 318.9063,26.2031 C319.3906,26.4844 319.5625,26.7031 319.6563,27.1094 C319.7188,27.5156 319.75,27.6406 319.8906,27.7656 C320.0313,27.9063 320.2656,28.0156 320.4844,28.0156 C320.75,28.0156 321.0156,27.875 321.1875,27.6563 C321.2969,27.5 321.3281,27.3125 321.3281,26.8906 L321.3281,25.4688 C321.3281,25.0313 321.3125,24.9063 321.2188,24.75 C321.0625,24.4844 320.7813,24.3438 320.4844,24.3438 C320.1875,24.3438 319.9844,24.4375 319.7656,24.75 L319.5938,24.6719 Z " fill="#000000"/><text fill="#000000" font-family="Verdana" font-size="14" lengthAdjust="spacing" textLength="107" x="334.75" y="33.8467">TrackedObject</text><rect fill="#FFFFFF" height="15.9688" style="stroke:#000000;stroke-width:1.0;stroke-dasharray:2.0,2.0;" width="9" x="602" y="12"/><text fill="#000000" font-family="Verdana" font-size="12" font-style="italic" lengthAdjust="spacing" textLength="7" x="603" y="24.1387">T</text><line style="stroke:#000000;stroke-width:1.0;" x1="153" x2="607" y1="43" y2="43"/><line style="stroke:#000000;stroke-width:1.0;" x1="153" x2="607" y1="51" y2="51"/><ellipse cx="163" cy="64.6484" fill="#FFFFFF" rx="3" ry="3" style="stroke:#000000;stroke-width:1.0;"/><text fill="#000000" font-family="Verdana" font-size="14" lengthAdjust="spacing" textLength="122" x="170" y="67.9951">TrackedObject():</text><ellipse cx="163" cy="80.9453" fill="#FFFFFF" rx="3" ry="3" style="stroke:#000000;stroke-width:1.0;"/><text fill="#000000" font-family="Verdana" font-size="14" lengthAdjust="spacing" textLength="81" x="170" y="84.292">set(T): void</text><ellipse cx="163" cy="97.2422" fill="#FFFFFF" rx="3" ry="3" style="stroke:#000000;stroke-width:1.0;"/><text fill="#000000" font-family="Verdana" font-size="14" lengthAdjust="spacing" textLength="301" x="170" y="100.5889">addChangeListener(ChangeListener): void</text><ellipse cx="163" cy="113.5391" fill="#FFFFFF" rx="3" ry="3" style="stroke:#000000;stroke-width:1.0;"/><text fill="#000000" font-family="Verdana" font-size="14" lengthAdjust="spacing" textLength="330" x="170" y="116.8857">removeChangeListener(ChangeListener): void</text><ellipse cx="163" cy="129.8359" fill="#FFFFFF" rx="3" ry="3" style="stroke:#000000;stroke-width:1.0;"/><text fill="#000000" font-family="Verdana" font-size="14" lengthAdjust="spacing" textLength="205" x="170" y="133.1826">notifyAllAboutHistory(): void</text><rect fill="#FFFFFF" height="6" style="stroke:#000000;stroke-width:1.0;" width="6" x="160" y="143.1328"/><text fill="#000000" font-family="Verdana" font-size="14" lengthAdjust="spacing" textLength="380" x="170" y="149.4795">notifyAllHistoryChanged(HistoryChangedEvent): void</text><ellipse cx="163" cy="162.4297" fill="#FFFFFF" rx="3" ry="3" style="stroke:#000000;stroke-width:1.0;"/><text fill="#000000" font-family="Verdana" font-size="14" lengthAdjust="spacing" textLength="53" x="170" y="165.7764">get(): T</text><rect fill="#FFFFFF" height="6" style="stroke:#000000;stroke-width:1.0;" width="6" x="160" y="175.7266"/><text fill="#000000" font-family="Verdana" font-size="14" lengthAdjust="spacing" textLength="318" x="170" y="182.0732">notifyAllObjectChanged(ChangeEvent): void</text><ellipse cx="163" cy="195.0234" fill="#FFFFFF" rx="3" ry="3" style="stroke:#000000;stroke-width:1.0;"/><text fill="#000000" font-family="Verdana" font-size="14" lengthAdjust="spacing" textLength="432" x="170" y="198.3701">removeHistoryChangeListener(HistoryChangeListener): void</text><ellipse cx="163" cy="211.3203" fill="#FFFFFF" rx="3" ry="3" style="stroke:#000000;stroke-width:1.0;"/><text fill="#000000" font-family="Verdana" font-size="14" lengthAdjust="spacing" textLength="403" x="170" y="214.667">addHistoryChangeListener(HistoryChangeListener): void</text><ellipse cx="163" cy="227.6172" fill="#FFFFFF" rx="3" ry="3" style="stroke:#000000;stroke-width:1.0;"/><text fill="#000000" font-family="Verdana" font-size="14" lengthAdjust="spacing" textLength="82" x="170" y="230.9639">redo(): void</text><ellipse cx="163" cy="243.9141" fill="#FFFFFF" rx="3" ry="3" style="stroke:#000000;stroke-width:1.0;"/><text fill="#000000" font-family="Verdana" font-size="14" lengthAdjust="spacing" textLength="84" x="170" y="247.2607">undo(): void</text></g><!--link TrackedObject to HistoryChangeListener--><g id="link_TrackedObject_HistoryChangeListener"><path codeLine="28" d="M253,267.214 C253,292.625 253,299.567 253,318.8965 " fill="none" id="TrackedObject-HistoryChangeListener" style="stroke:#595959;stroke-width:1.0;"/><polygon fill="#595959" points="253,255.214,249,261.214,253,267.214,257,261.214,253,255.214" style="stroke:#595959;stroke-width:1.0;"/><polygon fill="#595959" points="253,324.8965,257,315.8965,253,319.8965,249,315.8965,253,324.8965" style="stroke:#595959;stroke-width:1.0;"/><text fill="#000000" font-family="Verdana" font-size="13" lengthAdjust="spacing" textLength="8" x="237.4266" y="274.6808">1</text><text fill="#000000" font-family="Verdana" font-size="13" lengthAdjust="spacing" textLength="151" x="101.1234" y="298.7957">historyChangeListeners</text><text fill="#000000" font-family="Verdana" font-size="13" lengthAdjust="spacing" textLength="7" x="173.1234" y="313.9285">*</text></g><!--link TrackedObject to HistoryChangedEvent--><g id="link_TrackedObject_HistoryChangedEvent"><path codeLine="29" d="M498.5,255.214 C498.5,276.39 498.5,291.24 498.5,308.7879 " fill="none" id="TrackedObject-to-HistoryChangedEvent" style="stroke:#595959;stroke-width:1.0;stroke-dasharray:7.0,7.0;"/><polygon fill="#595959" points="498.5,314.7879,502.5,305.7879,498.5,309.7879,494.5,305.7879,498.5,314.7879" style="stroke:#595959;stroke-width:1.0;"/><text fill="#000000" font-family="Verdana" font-size="13" lengthAdjust="spacing" textLength="41" x="456.5" y="281.0679">create</text></g><!--SRC=[dLEnJiCm4Dtz5KTOJ6a71WQggbA5a3eW8Q4m0OCRNnlJn8xiQwKAzOlu1BP-6KaJDpMaKaKy9FVyxftV-N91AUO8HIQKPcGA80CpGsHoaCfYGifevfPA5yAA73AbaJO5Wh6K6iQK9hHpaI1CbIDZD_Ufq0jyB0FKQ64qWfOo7iCd0xY6z9WhUP0g7zQewMe8QwCasx8a4yv11wNHwjZXJxEFykJzqeZ9KEZ3Hwcwpqc4Vj7Iy39kTZpyZ27iwyTM94kKjV0ezaO2c7jvXyHZxw02X9HXNtWO7dCjvcQDPzEr8JNVJB9iCZChQfh1MyQWPKpFxdeblC2zeJZKg9rwYVhz9xMsq3aGl1FzrQj_PjhcxWx0IXy1MyQ2smB_H3SHz0QlbxTtrUhl_uJtmHYYjAkWUzEzwCImdoW0hRWKBaLPgNTEDC0GejrNOb4GxhwZ7m00]--></g></svg>