<?xml version="1.0" encoding="windows-1252" standalone="no"?>
<svg xmlns="http://www.w3.org/2000/svg" xmlns:xlink="http://www.w3.org/1999/xlink" contentStyleType="text/css" height="586px" preserveAspectRatio="none" style="width:1242px;height:586px;background:#FFFFFF;" version="1.1" viewBox="0 0 1242 586" width="1242px" zoomAndPan="magnify"><defs/><g><!--class CopyOperation--><g id="elem_CopyOperation"><rect codeLine="5" fill="#FFFFFF" height="76.5938" id="CopyOperation" rx="2.5" ry="2.5" style="stroke:#000000;stroke-width:1.0;" width="223" x="12" y="36"/><ellipse cx="64.75" cy="50" fill="#FFFFFF" rx="9" ry="9" style="stroke:#000000;stroke-width:1.0;"/><path d="M67.0938,45.6719 C66.1563,45.2344 65.5625,45.0938 64.6875,45.0938 C62.0625,45.0938 60.0625,47.1719 60.0625,49.8906 L60.0625,51.0156 C60.0625,53.5938 62.1719,55.4844 65.0625,55.4844 C66.2813,55.4844 67.4375,55.1875 68.1875,54.6406 C68.7656,54.2344 69.0938,53.7813 69.0938,53.3906 C69.0938,52.9375 68.7031,52.5469 68.2344,52.5469 C68.0156,52.5469 67.8125,52.625 67.625,52.8125 C67.1719,53.2969 67.1719,53.2969 66.9844,53.3906 C66.5625,53.6563 65.875,53.7813 65.1094,53.7813 C63.0625,53.7813 61.7656,52.6875 61.7656,50.9844 L61.7656,49.8906 C61.7656,48.1094 63.0156,46.7969 64.75,46.7969 C65.3281,46.7969 65.9375,46.9531 66.4063,47.2031 C66.8906,47.4844 67.0625,47.7031 67.1563,48.1094 C67.2188,48.5156 67.25,48.6406 67.3906,48.7656 C67.5313,48.9063 67.7656,49.0156 67.9844,49.0156 C68.25,49.0156 68.5156,48.875 68.6875,48.6563 C68.7969,48.5 68.8281,48.3125 68.8281,47.8906 L68.8281,46.4688 C68.8281,46.0313 68.8125,45.9063 68.7188,45.75 C68.5625,45.4844 68.2813,45.3438 67.9844,45.3438 C67.6875,45.3438 67.4844,45.4375 67.2656,45.75 L67.0938,45.6719 Z " fill="#000000"/><text fill="#000000" font-family="Verdana" font-size="14" lengthAdjust="spacing" textLength="110" x="82.25" y="54.8467">CopyOperation</text><line style="stroke:#000000;stroke-width:1.0;" x1="13" x2="234" y1="64" y2="64"/><line style="stroke:#000000;stroke-width:1.0;" x1="13" x2="234" y1="72" y2="72"/><ellipse cx="23" cy="85.6484" fill="#FFFFFF" rx="3" ry="3" style="stroke:#000000;stroke-width:1.0;"/><text fill="#000000" font-family="Verdana" font-size="14" lengthAdjust="spacing" textLength="199" x="30" y="88.9951">CopyOperation(Path, Path):</text><ellipse cx="23" cy="101.9453" fill="#FFFFFF" rx="3" ry="3" style="stroke:#000000;stroke-width:1.0;"/><text fill="#000000" font-family="Verdana" font-size="14" lengthAdjust="spacing" textLength="72" x="30" y="105.292">run(): void</text></g><!--class DeleteOperation--><g id="elem_DeleteOperation"><rect codeLine="9" fill="#FFFFFF" height="76.5938" id="DeleteOperation" rx="2.5" ry="2.5" style="stroke:#000000;stroke-width:1.0;" width="204" x="476.5" y="197"/><ellipse cx="513.8" cy="211" fill="#FFFFFF" rx="9" ry="9" style="stroke:#000000;stroke-width:1.0;"/><path d="M516.1438,206.6719 C515.2063,206.2344 514.6125,206.0938 513.7375,206.0938 C511.1125,206.0938 509.1125,208.1719 509.1125,210.8906 L509.1125,212.0156 C509.1125,214.5938 511.2219,216.4844 514.1125,216.4844 C515.3313,216.4844 516.4875,216.1875 517.2375,215.6406 C517.8156,215.2344 518.1438,214.7813 518.1438,214.3906 C518.1438,213.9375 517.7531,213.5469 517.2844,213.5469 C517.0656,213.5469 516.8625,213.625 516.675,213.8125 C516.2219,214.2969 516.2219,214.2969 516.0344,214.3906 C515.6125,214.6563 514.925,214.7813 514.1594,214.7813 C512.1125,214.7813 510.8156,213.6875 510.8156,211.9844 L510.8156,210.8906 C510.8156,209.1094 512.0656,207.7969 513.8,207.7969 C514.3781,207.7969 514.9875,207.9531 515.4563,208.2031 C515.9406,208.4844 516.1125,208.7031 516.2063,209.1094 C516.2688,209.5156 516.3,209.6406 516.4406,209.7656 C516.5813,209.9063 516.8156,210.0156 517.0344,210.0156 C517.3,210.0156 517.5656,209.875 517.7375,209.6563 C517.8469,209.5 517.8781,209.3125 517.8781,208.8906 L517.8781,207.4688 C517.8781,207.0313 517.8625,206.9063 517.7688,206.75 C517.6125,206.4844 517.3313,206.3438 517.0344,206.3438 C516.7375,206.3438 516.5344,206.4375 516.3156,206.75 L516.1438,206.6719 Z " fill="#000000"/><text fill="#000000" font-family="Verdana" font-size="14" lengthAdjust="spacing" textLength="122" x="531.2" y="215.8467">DeleteOperation</text><line style="stroke:#000000;stroke-width:1.0;" x1="477.5" x2="679.5" y1="225" y2="225"/><line style="stroke:#000000;stroke-width:1.0;" x1="477.5" x2="679.5" y1="233" y2="233"/><ellipse cx="487.5" cy="246.6484" fill="#FFFFFF" rx="3" ry="3" style="stroke:#000000;stroke-width:1.0;"/><text fill="#000000" font-family="Verdana" font-size="14" lengthAdjust="spacing" textLength="180" x="494.5" y="249.9951">DeleteOperation(Path[]):</text><ellipse cx="487.5" cy="262.9453" fill="#FFFFFF" rx="3" ry="3" style="stroke:#000000;stroke-width:1.0;"/><text fill="#000000" font-family="Verdana" font-size="14" lengthAdjust="spacing" textLength="72" x="494.5" y="266.292">run(): void</text></g><!--class FileOperation--><g id="elem_FileOperation"><rect codeLine="13" fill="#FFFFFF" height="60.2969" id="FileOperation" rx="2.5" ry="2.5" style="stroke:#000000;stroke-width:1.0;" width="211" x="230" y="205.5"/><ellipse cx="282.75" cy="219.5" fill="#FFFFFF" rx="9" ry="9" style="stroke:#000000;stroke-width:1.0;"/><path d="M285.0938,215.1719 C284.1563,214.7344 283.5625,214.5938 282.6875,214.5938 C280.0625,214.5938 278.0625,216.6719 278.0625,219.3906 L278.0625,220.5156 C278.0625,223.0938 280.1719,224.9844 283.0625,224.9844 C284.2813,224.9844 285.4375,224.6875 286.1875,224.1406 C286.7656,223.7344 287.0938,223.2813 287.0938,222.8906 C287.0938,222.4375 286.7031,222.0469 286.2344,222.0469 C286.0156,222.0469 285.8125,222.125 285.625,222.3125 C285.1719,222.7969 285.1719,222.7969 284.9844,222.8906 C284.5625,223.1563 283.875,223.2813 283.1094,223.2813 C281.0625,223.2813 279.7656,222.1875 279.7656,220.4844 L279.7656,219.3906 C279.7656,217.6094 281.0156,216.2969 282.75,216.2969 C283.3281,216.2969 283.9375,216.4531 284.4063,216.7031 C284.8906,216.9844 285.0625,217.2031 285.1563,217.6094 C285.2188,218.0156 285.25,218.1406 285.3906,218.2656 C285.5313,218.4063 285.7656,218.5156 285.9844,218.5156 C286.25,218.5156 286.5156,218.375 286.6875,218.1563 C286.7969,218 286.8281,217.8125 286.8281,217.3906 L286.8281,215.9688 C286.8281,215.5313 286.8125,215.4063 286.7188,215.25 C286.5625,214.9844 286.2813,214.8438 285.9844,214.8438 C285.6875,214.8438 285.4844,214.9375 285.2656,215.25 L285.0938,215.1719 Z " fill="#000000"/><text fill="#000000" font-family="Verdana" font-size="14" lengthAdjust="spacing" textLength="98" x="300.25" y="224.3467">FileOperation</text><line style="stroke:#000000;stroke-width:1.0;" x1="231" x2="440" y1="233.5" y2="233.5"/><line style="stroke:#000000;stroke-width:1.0;" x1="231" x2="440" y1="241.5" y2="241.5"/><polygon fill="#FFFFFF" points="241,250.1484,245,254.1484,241,258.1484,237,254.1484" style="stroke:#000000;stroke-width:1.0;"/><text fill="#000000" font-family="Verdana" font-size="14" lengthAdjust="spacing" textLength="187" x="248" y="258.4951">FileOperation(Path, Path):</text></g><!--class MoveOperation--><g id="elem_MoveOperation"><rect codeLine="16" fill="#FFFFFF" height="76.5938" id="MoveOperation" rx="2.5" ry="2.5" style="stroke:#000000;stroke-width:1.0;" width="224" x="270.5" y="36"/><ellipse cx="323.25" cy="50" fill="#FFFFFF" rx="9" ry="9" style="stroke:#000000;stroke-width:1.0;"/><path d="M325.5938,45.6719 C324.6563,45.2344 324.0625,45.0938 323.1875,45.0938 C320.5625,45.0938 318.5625,47.1719 318.5625,49.8906 L318.5625,51.0156 C318.5625,53.5938 320.6719,55.4844 323.5625,55.4844 C324.7813,55.4844 325.9375,55.1875 326.6875,54.6406 C327.2656,54.2344 327.5938,53.7813 327.5938,53.3906 C327.5938,52.9375 327.2031,52.5469 326.7344,52.5469 C326.5156,52.5469 326.3125,52.625 326.125,52.8125 C325.6719,53.2969 325.6719,53.2969 325.4844,53.3906 C325.0625,53.6563 324.375,53.7813 323.6094,53.7813 C321.5625,53.7813 320.2656,52.6875 320.2656,50.9844 L320.2656,49.8906 C320.2656,48.1094 321.5156,46.7969 323.25,46.7969 C323.8281,46.7969 324.4375,46.9531 324.9063,47.2031 C325.3906,47.4844 325.5625,47.7031 325.6563,48.1094 C325.7188,48.5156 325.75,48.6406 325.8906,48.7656 C326.0313,48.9063 326.2656,49.0156 326.4844,49.0156 C326.75,49.0156 327.0156,48.875 327.1875,48.6563 C327.2969,48.5 327.3281,48.3125 327.3281,47.8906 L327.3281,46.4688 C327.3281,46.0313 327.3125,45.9063 327.2188,45.75 C327.0625,45.4844 326.7813,45.3438 326.4844,45.3438 C326.1875,45.3438 325.9844,45.4375 325.7656,45.75 L325.5938,45.6719 Z " fill="#000000"/><text fill="#000000" font-family="Verdana" font-size="14" lengthAdjust="spacing" textLength="111" x="340.75" y="54.8467">MoveOperation</text><line style="stroke:#000000;stroke-width:1.0;" x1="271.5" x2="493.5" y1="64" y2="64"/><line style="stroke:#000000;stroke-width:1.0;" x1="271.5" x2="493.5" y1="72" y2="72"/><ellipse cx="281.5" cy="85.6484" fill="#FFFFFF" rx="3" ry="3" style="stroke:#000000;stroke-width:1.0;"/><text fill="#000000" font-family="Verdana" font-size="14" lengthAdjust="spacing" textLength="200" x="288.5" y="88.9951">MoveOperation(Path, Path):</text><ellipse cx="281.5" cy="101.9453" fill="#FFFFFF" rx="3" ry="3" style="stroke:#000000;stroke-width:1.0;"/><text fill="#000000" font-family="Verdana" font-size="14" lengthAdjust="spacing" textLength="72" x="288.5" y="105.292">run(): void</text></g><!--class NewDirectoryOperation--><g id="elem_NewDirectoryOperation"><rect codeLine="20" fill="#FFFFFF" height="76.5938" id="NewDirectoryOperation" rx="2.5" ry="2.5" style="stroke:#000000;stroke-width:1.0;" width="243" x="716" y="197"/><ellipse cx="748.8" cy="211" fill="#FFFFFF" rx="9" ry="9" style="stroke:#000000;stroke-width:1.0;"/><path d="M751.1438,206.6719 C750.2063,206.2344 749.6125,206.0938 748.7375,206.0938 C746.1125,206.0938 744.1125,208.1719 744.1125,210.8906 L744.1125,212.0156 C744.1125,214.5938 746.2219,216.4844 749.1125,216.4844 C750.3313,216.4844 751.4875,216.1875 752.2375,215.6406 C752.8156,215.2344 753.1438,214.7813 753.1438,214.3906 C753.1438,213.9375 752.7531,213.5469 752.2844,213.5469 C752.0656,213.5469 751.8625,213.625 751.675,213.8125 C751.2219,214.2969 751.2219,214.2969 751.0344,214.3906 C750.6125,214.6563 749.925,214.7813 749.1594,214.7813 C747.1125,214.7813 745.8156,213.6875 745.8156,211.9844 L745.8156,210.8906 C745.8156,209.1094 747.0656,207.7969 748.8,207.7969 C749.3781,207.7969 749.9875,207.9531 750.4563,208.2031 C750.9406,208.4844 751.1125,208.7031 751.2063,209.1094 C751.2688,209.5156 751.3,209.6406 751.4406,209.7656 C751.5813,209.9063 751.8156,210.0156 752.0344,210.0156 C752.3,210.0156 752.5656,209.875 752.7375,209.6563 C752.8469,209.5 752.8781,209.3125 752.8781,208.8906 L752.8781,207.4688 C752.8781,207.0313 752.8625,206.9063 752.7688,206.75 C752.6125,206.4844 752.3313,206.3438 752.0344,206.3438 C751.7375,206.3438 751.5344,206.4375 751.3156,206.75 L751.1438,206.6719 Z " fill="#000000"/><text fill="#000000" font-family="Verdana" font-size="14" lengthAdjust="spacing" textLength="171" x="765.2" y="215.8467">NewDirectoryOperation</text><line style="stroke:#000000;stroke-width:1.0;" x1="717" x2="958" y1="225" y2="225"/><line style="stroke:#000000;stroke-width:1.0;" x1="717" x2="958" y1="233" y2="233"/><ellipse cx="727" cy="246.6484" fill="#FFFFFF" rx="3" ry="3" style="stroke:#000000;stroke-width:1.0;"/><text fill="#000000" font-family="Verdana" font-size="14" lengthAdjust="spacing" textLength="219" x="734" y="249.9951">NewDirectoryOperation(Path):</text><ellipse cx="727" cy="262.9453" fill="#FFFFFF" rx="3" ry="3" style="stroke:#000000;stroke-width:1.0;"/><text fill="#000000" font-family="Verdana" font-size="14" lengthAdjust="spacing" textLength="72" x="734" y="266.292">run(): void</text></g><!--class Operation--><g id="elem_Operation"><rect codeLine="24" fill="#FFFFFF" height="109.1875" id="Operation" rx="2.5" ry="2.5" style="stroke:#000000;stroke-width:1.0;" width="223" x="596" y="334"/><ellipse cx="667.25" cy="348" fill="#FFFFFF" rx="9" ry="9" style="stroke:#000000;stroke-width:1.0;"/><path d="M669.5938,343.6719 C668.6563,343.2344 668.0625,343.0938 667.1875,343.0938 C664.5625,343.0938 662.5625,345.1719 662.5625,347.8906 L662.5625,349.0156 C662.5625,351.5938 664.6719,353.4844 667.5625,353.4844 C668.7813,353.4844 669.9375,353.1875 670.6875,352.6406 C671.2656,352.2344 671.5938,351.7813 671.5938,351.3906 C671.5938,350.9375 671.2031,350.5469 670.7344,350.5469 C670.5156,350.5469 670.3125,350.625 670.125,350.8125 C669.6719,351.2969 669.6719,351.2969 669.4844,351.3906 C669.0625,351.6563 668.375,351.7813 667.6094,351.7813 C665.5625,351.7813 664.2656,350.6875 664.2656,348.9844 L664.2656,347.8906 C664.2656,346.1094 665.5156,344.7969 667.25,344.7969 C667.8281,344.7969 668.4375,344.9531 668.9063,345.2031 C669.3906,345.4844 669.5625,345.7031 669.6563,346.1094 C669.7188,346.5156 669.75,346.6406 669.8906,346.7656 C670.0313,346.9063 670.2656,347.0156 670.4844,347.0156 C670.75,347.0156 671.0156,346.875 671.1875,346.6563 C671.2969,346.5 671.3281,346.3125 671.3281,345.8906 L671.3281,344.4688 C671.3281,344.0313 671.3125,343.9063 671.2188,343.75 C671.0625,343.4844 670.7813,343.3438 670.4844,343.3438 C670.1875,343.3438 669.9844,343.4375 669.7656,343.75 L669.5938,343.6719 Z " fill="#000000"/><text fill="#000000" font-family="Verdana" font-size="14" lengthAdjust="spacing" textLength="73" x="684.75" y="352.8467">Operation</text><line style="stroke:#000000;stroke-width:1.0;" x1="597" x2="818" y1="362" y2="362"/><polygon fill="none" points="607,370.6484,611,374.6484,607,378.6484,603,374.6484" style="stroke:#000000;stroke-width:1.0;"/><text fill="#000000" font-family="Verdana" font-size="14" lengthAdjust="spacing" textLength="107" x="614" y="378.9951">failed: boolean</text><text fill="#000000" font-family="Verdana" font-size="14" lengthAdjust="spacing" textLength="107" x="614" y="395.292">failed: boolean</text><line style="stroke:#000000;stroke-width:1.0;" x1="597" x2="818" y1="402.5938" y2="402.5938"/><ellipse cx="607" cy="416.2422" fill="#FFFFFF" rx="3" ry="3" style="stroke:#000000;stroke-width:1.0;"/><text fill="#000000" font-family="Verdana" font-size="14" lengthAdjust="spacing" textLength="88" x="614" y="419.5889">Operation():</text><ellipse cx="607" cy="432.5391" fill="#FFFFFF" rx="3" ry="3" style="stroke:#000000;stroke-width:1.0;"/><text fill="#000000" font-family="Verdana" font-size="14" lengthAdjust="spacing" textLength="199" x="614" y="435.8857">then(Operation): Operation</text></g><!--class OperationExecutor--><g id="elem_OperationExecutor"><rect codeLine="30" fill="#FFFFFF" height="125.4844" id="OperationExecutor" rx="2.5" ry="2.5" style="stroke:#000000;stroke-width:1.0;" width="524" x="575.5" y="12"/><ellipse cx="765.25" cy="26" fill="#FFFFFF" rx="9" ry="9" style="stroke:#000000;stroke-width:1.0;"/><path d="M767.5938,21.6719 C766.6563,21.2344 766.0625,21.0938 765.1875,21.0938 C762.5625,21.0938 760.5625,23.1719 760.5625,25.8906 L760.5625,27.0156 C760.5625,29.5938 762.6719,31.4844 765.5625,31.4844 C766.7813,31.4844 767.9375,31.1875 768.6875,30.6406 C769.2656,30.2344 769.5938,29.7813 769.5938,29.3906 C769.5938,28.9375 769.2031,28.5469 768.7344,28.5469 C768.5156,28.5469 768.3125,28.625 768.125,28.8125 C767.6719,29.2969 767.6719,29.2969 767.4844,29.3906 C767.0625,29.6563 766.375,29.7813 765.6094,29.7813 C763.5625,29.7813 762.2656,28.6875 762.2656,26.9844 L762.2656,25.8906 C762.2656,24.1094 763.5156,22.7969 765.25,22.7969 C765.8281,22.7969 766.4375,22.9531 766.9063,23.2031 C767.3906,23.4844 767.5625,23.7031 767.6563,24.1094 C767.7188,24.5156 767.75,24.6406 767.8906,24.7656 C768.0313,24.9063 768.2656,25.0156 768.4844,25.0156 C768.75,25.0156 769.0156,24.875 769.1875,24.6563 C769.2969,24.5 769.3281,24.3125 769.3281,23.8906 L769.3281,22.4688 C769.3281,22.0313 769.3125,21.9063 769.2188,21.75 C769.0625,21.4844 768.7813,21.3438 768.4844,21.3438 C768.1875,21.3438 767.9844,21.4375 767.7656,21.75 L767.5938,21.6719 Z " fill="#000000"/><text fill="#000000" font-family="Verdana" font-size="14" lengthAdjust="spacing" textLength="137" x="782.75" y="30.8467">OperationExecutor</text><line style="stroke:#000000;stroke-width:1.0;" x1="576.5" x2="1098.5" y1="40" y2="40"/><line style="stroke:#000000;stroke-width:1.0;" x1="576.5" x2="1098.5" y1="48" y2="48"/><ellipse cx="586.5" cy="61.6484" fill="#FFFFFF" rx="3" ry="3" style="stroke:#000000;stroke-width:1.0;"/><text fill="#000000" font-family="Verdana" font-size="14" lengthAdjust="spacing" textLength="152" x="593.5" y="64.9951">OperationExecutor():</text><ellipse cx="586.5" cy="77.9453" fill="#FFFFFF" rx="3" ry="3" style="stroke:#000000;stroke-width:1.0;"/><text fill="#000000" font-family="Verdana" font-size="14" lengthAdjust="spacing" textLength="500" x="593.5" y="81.292">issueFileOperation(WorkPane, WorkPane, Class&lt;FileOperation&gt;): void</text><ellipse cx="586.5" cy="94.2422" fill="#FFFFFF" rx="3" ry="3" style="stroke:#000000;stroke-width:1.0;"/><text fill="#000000" font-family="Verdana" font-size="14" lengthAdjust="spacing" textLength="174" x="593.5" y="97.5889">execute(Runnable): void</text><ellipse cx="586.5" cy="110.5391" fill="#FFFFFF" rx="3" ry="3" style="stroke:#000000;stroke-width:1.0;"/><text fill="#000000" font-family="Verdana" font-size="14" lengthAdjust="spacing" textLength="424" x="593.5" y="113.8857">issueDeleteOperation(WorkPane, Component, Path[]): void</text><ellipse cx="586.5" cy="126.8359" fill="#FFFFFF" rx="3" ry="3" style="stroke:#000000;stroke-width:1.0;"/><text fill="#000000" font-family="Verdana" font-size="14" lengthAdjust="spacing" textLength="328" x="593.5" y="130.1826">issueNewDirectoryOperation(WorkPane): void</text></g><!--class RefreshOperation--><g id="elem_RefreshOperation"><rect codeLine="37" fill="#FFFFFF" height="76.5938" id="RefreshOperation" rx="2.5" ry="2.5" style="stroke:#000000;stroke-width:1.0;" width="241" x="994" y="197"/><ellipse cx="1046.25" cy="211" fill="#FFFFFF" rx="9" ry="9" style="stroke:#000000;stroke-width:1.0;"/><path d="M1048.5938,206.6719 C1047.6563,206.2344 1047.0625,206.0938 1046.1875,206.0938 C1043.5625,206.0938 1041.5625,208.1719 1041.5625,210.8906 L1041.5625,212.0156 C1041.5625,214.5938 1043.6719,216.4844 1046.5625,216.4844 C1047.7813,216.4844 1048.9375,216.1875 1049.6875,215.6406 C1050.2656,215.2344 1050.5938,214.7813 1050.5938,214.3906 C1050.5938,213.9375 1050.2031,213.5469 1049.7344,213.5469 C1049.5156,213.5469 1049.3125,213.625 1049.125,213.8125 C1048.6719,214.2969 1048.6719,214.2969 1048.4844,214.3906 C1048.0625,214.6563 1047.375,214.7813 1046.6094,214.7813 C1044.5625,214.7813 1043.2656,213.6875 1043.2656,211.9844 L1043.2656,210.8906 C1043.2656,209.1094 1044.5156,207.7969 1046.25,207.7969 C1046.8281,207.7969 1047.4375,207.9531 1047.9063,208.2031 C1048.3906,208.4844 1048.5625,208.7031 1048.6563,209.1094 C1048.7188,209.5156 1048.75,209.6406 1048.8906,209.7656 C1049.0313,209.9063 1049.2656,210.0156 1049.4844,210.0156 C1049.75,210.0156 1050.0156,209.875 1050.1875,209.6563 C1050.2969,209.5 1050.3281,209.3125 1050.3281,208.8906 L1050.3281,207.4688 C1050.3281,207.0313 1050.3125,206.9063 1050.2188,206.75 C1050.0625,206.4844 1049.7813,206.3438 1049.4844,206.3438 C1049.1875,206.3438 1048.9844,206.4375 1048.7656,206.75 L1048.5938,206.6719 Z " fill="#000000"/><text fill="#000000" font-family="Verdana" font-size="14" lengthAdjust="spacing" textLength="129" x="1063.75" y="215.8467">RefreshOperation</text><line style="stroke:#000000;stroke-width:1.0;" x1="995" x2="1234" y1="225" y2="225"/><line style="stroke:#000000;stroke-width:1.0;" x1="995" x2="1234" y1="233" y2="233"/><ellipse cx="1005" cy="246.6484" fill="#FFFFFF" rx="3" ry="3" style="stroke:#000000;stroke-width:1.0;"/><text fill="#000000" font-family="Verdana" font-size="14" lengthAdjust="spacing" textLength="217" x="1012" y="249.9951">RefreshOperation(Controller):</text><ellipse cx="1005" cy="262.9453" fill="#FFFFFF" rx="3" ry="3" style="stroke:#000000;stroke-width:1.0;"/><text fill="#000000" font-family="Verdana" font-size="14" lengthAdjust="spacing" textLength="72" x="1012" y="266.292">run(): void</text></g><!--class ThenOperation--><g id="elem_ThenOperation"><rect codeLine="41" fill="#FFFFFF" height="76.5938" id="ThenOperation" rx="2.5" ry="2.5" style="stroke:#000000;stroke-width:1.0;" width="302" x="556.5" y="503"/><ellipse cx="649.25" cy="517" fill="#FFFFFF" rx="9" ry="9" style="stroke:#000000;stroke-width:1.0;"/><path d="M651.5938,512.6719 C650.6563,512.2344 650.0625,512.0938 649.1875,512.0938 C646.5625,512.0938 644.5625,514.1719 644.5625,516.8906 L644.5625,518.0156 C644.5625,520.5938 646.6719,522.4844 649.5625,522.4844 C650.7813,522.4844 651.9375,522.1875 652.6875,521.6406 C653.2656,521.2344 653.5938,520.7813 653.5938,520.3906 C653.5938,519.9375 653.2031,519.5469 652.7344,519.5469 C652.5156,519.5469 652.3125,519.625 652.125,519.8125 C651.6719,520.2969 651.6719,520.2969 651.4844,520.3906 C651.0625,520.6563 650.375,520.7813 649.6094,520.7813 C647.5625,520.7813 646.2656,519.6875 646.2656,517.9844 L646.2656,516.8906 C646.2656,515.1094 647.5156,513.7969 649.25,513.7969 C649.8281,513.7969 650.4375,513.9531 650.9063,514.2031 C651.3906,514.4844 651.5625,514.7031 651.6563,515.1094 C651.7188,515.5156 651.75,515.6406 651.8906,515.7656 C652.0313,515.9063 652.2656,516.0156 652.4844,516.0156 C652.75,516.0156 653.0156,515.875 653.1875,515.6563 C653.2969,515.5 653.3281,515.3125 653.3281,514.8906 L653.3281,513.4688 C653.3281,513.0313 653.3125,512.9063 653.2188,512.75 C653.0625,512.4844 652.7813,512.3438 652.4844,512.3438 C652.1875,512.3438 651.9844,512.4375 651.7656,512.75 L651.5938,512.6719 Z " fill="#000000"/><text fill="#000000" font-family="Verdana" font-size="14" lengthAdjust="spacing" textLength="109" x="666.75" y="521.8467">ThenOperation</text><line style="stroke:#000000;stroke-width:1.0;" x1="557.5" x2="857.5" y1="531" y2="531"/><line style="stroke:#000000;stroke-width:1.0;" x1="557.5" x2="857.5" y1="539" y2="539"/><polygon fill="#FFFFFF" points="567.5,548.6484,563.5,554.6484,571.5,554.6484" style="stroke:#000000;stroke-width:1.0;"/><text fill="#000000" font-family="Verdana" font-size="14" lengthAdjust="spacing" textLength="278" x="574.5" y="555.9951">ThenOperation(Operation, Operation):</text><ellipse cx="567.5" cy="568.9453" fill="#FFFFFF" rx="3" ry="3" style="stroke:#000000;stroke-width:1.0;"/><text fill="#000000" font-family="Verdana" font-size="14" lengthAdjust="spacing" textLength="72" x="574.5" y="572.292">run(): void</text></g><!--link CopyOperation to FileOperation--><g id="link_CopyOperation_FileOperation"><path codeLine="46" d="M235.049,75 C245.768,75 252.75,75 252.75,75 C252.75,75 252.75,140.818 252.75,187.311 " fill="none" id="CopyOperation-to-FileOperation" style="stroke:#000082;stroke-width:1.0;"/><polygon fill="none" points="252.75,205.311,258.75,187.311,246.75,187.311,252.75,205.311" style="stroke:#000082;stroke-width:1.0;"/></g><!--link DeleteOperation to Operation--><g id="link_DeleteOperation_Operation"><path codeLine="47" d="M638.25,274.108 C638.25,292.168 638.25,295.996 638.25,315.723 " fill="none" id="DeleteOperation-to-Operation" style="stroke:#000082;stroke-width:1.0;"/><polygon fill="none" points="638.25,333.723,644.25,315.723,632.25,315.723,638.25,333.723" style="stroke:#000082;stroke-width:1.0;"/></g><!--link FileOperation to Operation--><g id="link_FileOperation_Operation"><path codeLine="48" d="M335.5,265.827 C335.5,310.561 335.5,389 335.5,389 C335.5,389 468.313,389 577.888,389 " fill="none" id="FileOperation-to-Operation" style="stroke:#000082;stroke-width:1.0;"/><polygon fill="none" points="595.888,389,577.888,383,577.888,395,595.888,389" style="stroke:#000082;stroke-width:1.0;"/></g><!--link MoveOperation to FileOperation--><g id="link_MoveOperation_FileOperation"><path codeLine="49" d="M355.75,113.064 C355.75,141.344 355.75,161.205 355.75,187.3 " fill="none" id="MoveOperation-to-FileOperation" style="stroke:#000082;stroke-width:1.0;"/><polygon fill="none" points="355.75,205.3,361.75,187.3,349.75,187.3,355.75,205.3" style="stroke:#000082;stroke-width:1.0;"/></g><!--link NewDirectoryOperation to Operation--><g id="link_NewDirectoryOperation_Operation"><path codeLine="50" d="M767.5,274.108 C767.5,292.168 767.5,295.996 767.5,315.723 " fill="none" id="NewDirectoryOperation-to-Operation" style="stroke:#000082;stroke-width:1.0;"/><polygon fill="none" points="767.5,333.723,773.5,315.723,761.5,315.723,767.5,333.723" style="stroke:#000082;stroke-width:1.0;"/></g><!--link Operation to ThenOperation--><g id="link_Operation_ThenOperation"><path codeLine="51" d="M651.75,443.304 C651.75,463.026 651.75,478.8444 651.75,496.8963 " fill="none" id="Operation-to-ThenOperation" style="stroke:#595959;stroke-width:1.0;stroke-dasharray:7.0,7.0;"/><polygon fill="#595959" points="651.75,502.8963,655.75,493.8963,651.75,497.8963,647.75,493.8963,651.75,502.8963" style="stroke:#595959;stroke-width:1.0;"/><text fill="#000000" font-family="Verdana" font-size="13" lengthAdjust="spacing" textLength="41" x="609.75" y="469.1669">create</text></g><!--link ThenOperation to Operation--><g id="link_ThenOperation_Operation"><path codeLine="56" d="M707.5,502.8916 C707.5,484.8325 707.5,481.004 707.5,461.277 " fill="none" id="ThenOperation-to-Operation" style="stroke:#000082;stroke-width:1.0;"/><polygon fill="none" points="707.5,443.277,701.5,461.277,713.5,461.277,707.5,443.277" style="stroke:#000082;stroke-width:1.0;"/></g><!--link ThenOperation to Operation--><g id="link_ThenOperation_Operation"><path codeLine="57" d="M763.25,490.8916 C763.25,472.8325 763.25,469.004 763.25,449.277 " fill="none" id="ThenOperation-Operation" style="stroke:#595959;stroke-width:1.0;"/><polygon fill="#595959" points="763.25,502.8916,767.25,496.8916,763.25,490.8916,759.25,496.8916,763.25,502.8916" style="stroke:#595959;stroke-width:1.0;"/><polygon fill="#595959" points="763.25,443.277,759.25,452.277,763.25,448.277,767.25,452.277,763.25,443.277" style="stroke:#595959;stroke-width:1.0;"/><text fill="#000000" font-family="Verdana" font-size="13" lengthAdjust="spacing" textLength="8" x="764.468" y="491.7934">1</text><text fill="#000000" font-family="Verdana" font-size="13" lengthAdjust="spacing" textLength="61" x="705.1695" y="463.4164">operation</text><text fill="#000000" font-family="Verdana" font-size="13" lengthAdjust="spacing" textLength="8" x="731.6695" y="478.5492">1</text></g><!--link OperationExecutor to DeleteOperation--><g id="link_OperationExecutor_DeleteOperation"><path codeLine="52" d="M628,137.208 C628,157.339 628,173.032 628,190.904 " fill="none" id="OperationExecutor-to-DeleteOperation" style="stroke:#595959;stroke-width:1.0;stroke-dasharray:7.0,7.0;"/><polygon fill="#595959" points="628,196.904,632,187.904,628,191.904,624,187.904,628,196.904" style="stroke:#595959;stroke-width:1.0;"/><text fill="#000000" font-family="Verdana" font-size="13" lengthAdjust="spacing" textLength="41" x="586" y="163.1229">create</text></g><!--link OperationExecutor to NewDirectoryOperation--><g id="link_OperationExecutor_NewDirectoryOperation"><path codeLine="53" d="M837.5,137.208 C837.5,157.339 837.5,173.032 837.5,190.904 " fill="none" id="OperationExecutor-to-NewDirectoryOperation" style="stroke:#595959;stroke-width:1.0;stroke-dasharray:7.0,7.0;"/><polygon fill="#595959" points="837.5,196.904,841.5,187.904,837.5,191.904,833.5,187.904,837.5,196.904" style="stroke:#595959;stroke-width:1.0;"/><text fill="#000000" font-family="Verdana" font-size="13" lengthAdjust="spacing" textLength="41" x="795.5" y="163.1229">create</text></g><!--link OperationExecutor to RefreshOperation--><g id="link_OperationExecutor_RefreshOperation"><path codeLine="54" d="M1046.75,137.208 C1046.75,157.339 1046.75,173.032 1046.75,190.904 " fill="none" id="OperationExecutor-to-RefreshOperation" style="stroke:#595959;stroke-width:1.0;stroke-dasharray:7.0,7.0;"/><polygon fill="#595959" points="1046.75,196.904,1050.75,187.904,1046.75,191.904,1042.75,187.904,1046.75,196.904" style="stroke:#595959;stroke-width:1.0;"/><text fill="#000000" font-family="Verdana" font-size="13" lengthAdjust="spacing" textLength="41" x="1004.75" y="163.1229">create</text></g><!--link RefreshOperation to Operation--><g id="link_RefreshOperation_Operation"><path codeLine="55" d="M1114.5,274.235 C1114.5,319.708 1114.5,389 1114.5,389 C1114.5,389 957.741,389 837.253,389 " fill="none" id="RefreshOperation-to-Operation" style="stroke:#000082;stroke-width:1.0;"/><polygon fill="none" points="819.253,389,837.253,395,837.253,383,819.253,389" style="stroke:#000082;stroke-width:1.0;"/></g><!--SRC=[fPFDIWCn4CVlUOfnUrbr2oe8MgINgZUr5C63LeZTARiqpIpPL2sYB-GZUEkJcLtTjid6QcqA9KncVlFntzdI2OuHCi5JoJHbe0aUI6iQGvmg7EYK9Cj7gSouucCGgKGzpH18wOGO6mYUvz2XR7gLeUA5DxmmW5tR5dQvJY8e_hTRKBwhYGpD_P7IcBr-SqvHe4QNv5XBrcr_5USy5GwbOTkSUggu2tgiPRTiV-pZ4fzEo-6Hgit5-nR-HdGfYyYlg0OCkMamRXdnI22NfPVHLePpL-CvlvldMaGjrzap3YQcJZTdPG-hYjCydw0zu1jIeowN6C7YrYdm9vPVksgqm639nR0taP8_25n-ArEuNy8IciOPIPJwIvpoyx1Z_NEl2EwyUpXKc2Vks5rps26f5Gc1QfLwrqO76_LcsnOYHR2ibuV8x6MRd-PjOy-SeuEetEL-ynwSFQWESzTi1S6Jg23umUiGx5NxJnV-9Lkd1h-v81mU5xyevdc2SR_P1aV2whGWcBqF57ADiu-0rJVdPw1VX0s0_dbi0ApjWAz2lzCwAlWdkpaXs0zWPz7ODwKD0LMkTzAup0C_0G00]--></g></svg>