<?xml version="1.0" encoding="windows-1252" standalone="no"?>
<svg xmlns="http://www.w3.org/2000/svg" xmlns:xlink="http://www.w3.org/1999/xlink" contentStyleType="text/css" height="556px" preserveAspectRatio="none" style="width:930px;height:556px;background:#FFFFFF;" version="1.1" viewBox="0 0 930 556" width="930px" zoomAndPan="magnify"><defs/><g><!--class IconType--><g id="elem_IconType"><rect codeLine="5" fill="#FFFFFF" height="121.4531" id="IconType" rx="2.5" ry="2.5" style="stroke:#000000;stroke-width:1.0;" width="207" x="436" y="12"/><ellipse cx="492.25" cy="32.1328" fill="#FFFFFF" rx="9" ry="9" style="stroke:#000000;stroke-width:1.0;"/><path d="M491.0469,33.0078 L492.5,33.0078 L492.5,33.1172 C492.5,33.5234 492.5313,33.6797 492.6094,33.8359 C492.7656,34.0859 493.0469,34.2422 493.3438,34.2422 C493.5938,34.2422 493.8594,34.1016 494.0156,33.8828 C494.1406,33.7266 494.1719,33.5703 494.1719,33.1172 L494.1719,31.1953 C494.1719,31.0391 494.1719,30.9922 494.1563,30.8359 C494.0938,30.3672 493.7813,30.0547 493.3281,30.0547 C493.0781,30.0547 492.8125,30.1953 492.6406,30.4141 C492.5313,30.5859 492.5,30.7422 492.5,31.1953 L492.5,31.3203 L491.0469,31.3203 L491.0469,28.9141 L495.0313,28.9141 L495.0313,29.7734 C495.0313,30.1797 495.0625,30.3516 495.1406,30.5078 C495.3125,30.7578 495.5938,30.9141 495.875,30.9141 C496.1406,30.9141 496.4063,30.7734 496.5781,30.5547 C496.6875,30.3828 496.7188,30.2422 496.7188,29.7734 L496.7188,27.2266 L489.0938,27.2266 C488.6563,27.2266 488.5313,27.2422 488.375,27.3359 C488.125,27.4922 487.9688,27.7891 487.9688,28.0703 C487.9688,28.3516 488.1094,28.6016 488.3281,28.7734 C488.4844,28.8828 488.6719,28.9141 489.0938,28.9141 L489.3438,28.9141 L489.3438,35.4297 L489.0938,35.4297 C488.6875,35.4297 488.5313,35.4453 488.375,35.5547 C488.125,35.7266 487.9688,35.9922 487.9688,36.2891 C487.9688,36.5547 488.1094,36.8047 488.3281,36.9609 C488.4688,37.0859 488.7031,37.1328 489.0938,37.1328 L497.0938,37.1328 L497.0938,34.5547 C497.0938,34.1172 497.0625,33.9766 496.9844,33.8203 C496.8125,33.5703 496.5313,33.4141 496.25,33.4141 C495.9844,33.4141 495.7188,33.5234 495.5469,33.7734 C495.4375,33.9297 495.4063,34.0703 495.4063,34.5547 L495.4063,35.4297 L491.0469,35.4297 L491.0469,33.0078 Z " fill="#000000"/><text fill="#000000" font-family="Verdana" font-size="12" font-style="italic" lengthAdjust="spacing" textLength="91" x="507.75" y="28.1387">첿numeration</text><text fill="#000000" font-family="Verdana" font-size="14" lengthAdjust="spacing" textLength="66" x="520.25" y="43.9639">IconType</text><line style="stroke:#000000;stroke-width:1.0;" x1="437" x2="642" y1="52.2656" y2="52.2656"/><line style="stroke:#000000;stroke-width:1.0;" x1="437" x2="642" y1="60.2656" y2="60.2656"/><ellipse cx="447" cy="73.9141" fill="#FFFFFF" rx="3" ry="3" style="stroke:#000000;stroke-width:1.0;"/><text fill="#000000" font-family="Verdana" font-size="14" lengthAdjust="spacing" textLength="81" x="454" y="77.2607">IconType():</text><ellipse cx="447" cy="90.2109" fill="#FFFFFF" rx="3" ry="3" style="stroke:#000000;stroke-width:1.0;"/><text fill="#000000" font-family="Verdana" font-size="14" lengthAdjust="spacing" textLength="183" x="454" y="93.5576">valueOf(String): IconType</text><ellipse cx="447" cy="106.5078" fill="#FFFFFF" rx="3" ry="3" style="stroke:#000000;stroke-width:1.0;"/><text fill="#000000" font-family="Verdana" font-size="14" lengthAdjust="spacing" textLength="123" x="454" y="109.8545">toString(): String</text><ellipse cx="447" cy="122.8047" fill="#FFFFFF" rx="3" ry="3" style="stroke:#000000;stroke-width:1.0;"/><text fill="#000000" font-family="Verdana" font-size="14" lengthAdjust="spacing" textLength="139" x="454" y="126.1514">values(): IconType[]</text></g><!--class Option--><g id="elem_Option"><rect codeLine="11" fill="#FFFFFF" height="105.1563" id="Option" rx="2.5" ry="2.5" style="stroke:#000000;stroke-width:1.0;" width="191" x="678" y="20"/><ellipse cx="726.25" cy="40.1328" fill="#FFFFFF" rx="9" ry="9" style="stroke:#000000;stroke-width:1.0;"/><path d="M725.0469,41.0078 L726.5,41.0078 L726.5,41.1172 C726.5,41.5234 726.5313,41.6797 726.6094,41.8359 C726.7656,42.0859 727.0469,42.2422 727.3438,42.2422 C727.5938,42.2422 727.8594,42.1016 728.0156,41.8828 C728.1406,41.7266 728.1719,41.5703 728.1719,41.1172 L728.1719,39.1953 C728.1719,39.0391 728.1719,38.9922 728.1563,38.8359 C728.0938,38.3672 727.7813,38.0547 727.3281,38.0547 C727.0781,38.0547 726.8125,38.1953 726.6406,38.4141 C726.5313,38.5859 726.5,38.7422 726.5,39.1953 L726.5,39.3203 L725.0469,39.3203 L725.0469,36.9141 L729.0313,36.9141 L729.0313,37.7734 C729.0313,38.1797 729.0625,38.3516 729.1406,38.5078 C729.3125,38.7578 729.5938,38.9141 729.875,38.9141 C730.1406,38.9141 730.4063,38.7734 730.5781,38.5547 C730.6875,38.3828 730.7188,38.2422 730.7188,37.7734 L730.7188,35.2266 L723.0938,35.2266 C722.6563,35.2266 722.5313,35.2422 722.375,35.3359 C722.125,35.4922 721.9688,35.7891 721.9688,36.0703 C721.9688,36.3516 722.1094,36.6016 722.3281,36.7734 C722.4844,36.8828 722.6719,36.9141 723.0938,36.9141 L723.3438,36.9141 L723.3438,43.4297 L723.0938,43.4297 C722.6875,43.4297 722.5313,43.4453 722.375,43.5547 C722.125,43.7266 721.9688,43.9922 721.9688,44.2891 C721.9688,44.5547 722.1094,44.8047 722.3281,44.9609 C722.4688,45.0859 722.7031,45.1328 723.0938,45.1328 L731.0938,45.1328 L731.0938,42.5547 C731.0938,42.1172 731.0625,41.9766 730.9844,41.8203 C730.8125,41.5703 730.5313,41.4141 730.25,41.4141 C729.9844,41.4141 729.7188,41.5234 729.5469,41.7734 C729.4375,41.9297 729.4063,42.0703 729.4063,42.5547 L729.4063,43.4297 L725.0469,43.4297 L725.0469,41.0078 Z " fill="#000000"/><text fill="#000000" font-family="Verdana" font-size="12" font-style="italic" lengthAdjust="spacing" textLength="91" x="741.75" y="36.1387">첿numeration</text><text fill="#000000" font-family="Verdana" font-size="14" lengthAdjust="spacing" textLength="50" x="762.25" y="51.9639">Option</text><line style="stroke:#000000;stroke-width:1.0;" x1="679" x2="868" y1="60.2656" y2="60.2656"/><line style="stroke:#000000;stroke-width:1.0;" x1="679" x2="868" y1="68.2656" y2="68.2656"/><rect fill="#FFFFFF" height="6" style="stroke:#000000;stroke-width:1.0;" width="6" x="686" y="78.9141"/><text fill="#000000" font-family="Verdana" font-size="14" lengthAdjust="spacing" textLength="114" x="696" y="85.2607">Option(Object):</text><ellipse cx="689" cy="98.2109" fill="#FFFFFF" rx="3" ry="3" style="stroke:#000000;stroke-width:1.0;"/><text fill="#000000" font-family="Verdana" font-size="14" lengthAdjust="spacing" textLength="123" x="696" y="101.5576">values(): Option[]</text><ellipse cx="689" cy="114.5078" fill="#FFFFFF" rx="3" ry="3" style="stroke:#000000;stroke-width:1.0;"/><text fill="#000000" font-family="Verdana" font-size="14" lengthAdjust="spacing" textLength="167" x="696" y="117.8545">valueOf(String): Option</text></g><!--class SettingChangeAdapter--><g id="elem_SettingChangeAdapter"><rect codeLine="16" fill="#FFFFFF" height="76.5938" id="SettingChangeAdapter" rx="2.5" ry="2.5" style="stroke:#000000;stroke-width:1.0;" width="347" x="12" y="250"/><ellipse cx="98.25" cy="264" fill="#FFFFFF" rx="9" ry="9" style="stroke:#000000;stroke-width:1.0;"/><path d="M100.5938,259.6719 C99.6563,259.2344 99.0625,259.0938 98.1875,259.0938 C95.5625,259.0938 93.5625,261.1719 93.5625,263.8906 L93.5625,265.0156 C93.5625,267.5938 95.6719,269.4844 98.5625,269.4844 C99.7813,269.4844 100.9375,269.1875 101.6875,268.6406 C102.2656,268.2344 102.5938,267.7813 102.5938,267.3906 C102.5938,266.9375 102.2031,266.5469 101.7344,266.5469 C101.5156,266.5469 101.3125,266.625 101.125,266.8125 C100.6719,267.2969 100.6719,267.2969 100.4844,267.3906 C100.0625,267.6563 99.375,267.7813 98.6094,267.7813 C96.5625,267.7813 95.2656,266.6875 95.2656,264.9844 L95.2656,263.8906 C95.2656,262.1094 96.5156,260.7969 98.25,260.7969 C98.8281,260.7969 99.4375,260.9531 99.9063,261.2031 C100.3906,261.4844 100.5625,261.7031 100.6563,262.1094 C100.7188,262.5156 100.75,262.6406 100.8906,262.7656 C101.0313,262.9063 101.2656,263.0156 101.4844,263.0156 C101.75,263.0156 102.0156,262.875 102.1875,262.6563 C102.2969,262.5 102.3281,262.3125 102.3281,261.8906 L102.3281,260.4688 C102.3281,260.0313 102.3125,259.9063 102.2188,259.75 C102.0625,259.4844 101.7813,259.3438 101.4844,259.3438 C101.1875,259.3438 100.9844,259.4375 100.7656,259.75 L100.5938,259.6719 Z " fill="#000000"/><text fill="#000000" font-family="Verdana" font-size="14" lengthAdjust="spacing" textLength="167" x="115.75" y="268.8467">SettingChangeAdapter</text><line style="stroke:#000000;stroke-width:1.0;" x1="13" x2="358" y1="278" y2="278"/><line style="stroke:#000000;stroke-width:1.0;" x1="13" x2="358" y1="286" y2="286"/><ellipse cx="23" cy="299.6484" fill="#FFFFFF" rx="3" ry="3" style="stroke:#000000;stroke-width:1.0;"/><text fill="#000000" font-family="Verdana" font-size="14" lengthAdjust="spacing" textLength="182" x="30" y="302.9951">SettingChangeAdapter():</text><ellipse cx="23" cy="315.9453" fill="#FFFFFF" rx="3" ry="3" style="stroke:#000000;stroke-width:1.0;"/><text fill="#000000" font-family="Verdana" font-size="14" lengthAdjust="spacing" textLength="323" x="30" y="319.292">settingChanged(SettingChangedEvent): void</text></g><!--class SettingChangeListener--><g id="elem_SettingChangeListener"><rect codeLine="20" fill="#FFFFFF" height="72.5625" id="SettingChangeListener" rx="2.5" ry="2.5" style="stroke:#000000;stroke-width:1.0;" width="347" x="54" y="460"/><ellipse cx="142.75" cy="480.1328" fill="#FFFFFF" rx="9" ry="9" style="stroke:#000000;stroke-width:1.0;"/><path d="M143.7031,476.9141 L145.4219,476.9141 C145.8125,476.9141 146,476.8828 146.125,476.8047 C146.3906,476.6484 146.5313,476.3672 146.5313,476.0703 C146.5313,475.8047 146.4219,475.5391 146.1875,475.3672 C146.0156,475.2578 145.875,475.2266 145.4219,475.2266 L140.2813,475.2266 C139.8438,475.2266 139.7188,475.2422 139.5625,475.3359 C139.3125,475.4922 139.1563,475.7891 139.1563,476.0703 C139.1563,476.3516 139.2969,476.6016 139.5156,476.7734 C139.6719,476.8828 139.8594,476.9141 140.2813,476.9141 L142,476.9141 L142,483.4297 L140.2813,483.4297 C139.8438,483.4297 139.7188,483.4453 139.5625,483.5547 C139.3125,483.7109 139.1563,483.9922 139.1563,484.2891 C139.1563,484.5391 139.2969,484.8047 139.5156,484.9609 C139.6719,485.0859 139.875,485.1328 140.2813,485.1328 L145.4219,485.1328 C146.1719,485.1328 146.5313,484.8516 146.5313,484.2891 C146.5313,484.0078 146.4219,483.7578 146.1875,483.5859 C146.0156,483.4609 145.875,483.4297 145.4219,483.4297 L143.7031,483.4297 L143.7031,476.9141 Z " fill="#000000"/><text fill="#000000" font-family="Verdana" font-size="12" font-style="italic" lengthAdjust="spacing" textLength="67" x="207.75" y="476.1387">쳃nterface</text><text fill="#000000" font-family="Verdana" font-size="14" font-style="italic" lengthAdjust="spacing" textLength="162" x="160.25" y="491.9639">SettingChangeListener</text><line style="stroke:#000000;stroke-width:1.0;" x1="55" x2="400" y1="500.2656" y2="500.2656"/><line style="stroke:#000000;stroke-width:1.0;" x1="55" x2="400" y1="508.2656" y2="508.2656"/><ellipse cx="65" cy="521.9141" fill="#FFFFFF" rx="3" ry="3" style="stroke:#000000;stroke-width:1.0;"/><text fill="#000000" font-family="Verdana" font-size="14" lengthAdjust="spacing" textLength="323" x="72" y="525.2607">settingChanged(SettingChangedEvent): void</text></g><!--class SettingChangedEvent--><g id="elem_SettingChangedEvent"><rect codeLine="23" fill="#FFFFFF" height="105.1563" id="SettingChangedEvent" rx="2.5" ry="2.5" style="stroke:#000000;stroke-width:1.0;" width="300" x="623.5" y="444"/><ellipse cx="690.25" cy="464.1328" fill="#FFFFFF" rx="9" ry="9" style="stroke:#000000;stroke-width:1.0;"/><path d="M689.0469,465.0078 L690.5,465.0078 L690.5,465.1172 C690.5,465.5234 690.5313,465.6797 690.6094,465.8359 C690.7656,466.0859 691.0469,466.2422 691.3438,466.2422 C691.5938,466.2422 691.8594,466.1016 692.0156,465.8828 C692.1406,465.7266 692.1719,465.5703 692.1719,465.1172 L692.1719,463.1953 C692.1719,463.0391 692.1719,462.9922 692.1563,462.8359 C692.0938,462.3672 691.7813,462.0547 691.3281,462.0547 C691.0781,462.0547 690.8125,462.1953 690.6406,462.4141 C690.5313,462.5859 690.5,462.7422 690.5,463.1953 L690.5,463.3203 L689.0469,463.3203 L689.0469,460.9141 L693.0313,460.9141 L693.0313,461.7734 C693.0313,462.1797 693.0625,462.3516 693.1406,462.5078 C693.3125,462.7578 693.5938,462.9141 693.875,462.9141 C694.1406,462.9141 694.4063,462.7734 694.5781,462.5547 C694.6875,462.3828 694.7188,462.2422 694.7188,461.7734 L694.7188,459.2266 L687.0938,459.2266 C686.6563,459.2266 686.5313,459.2422 686.375,459.3359 C686.125,459.4922 685.9688,459.7891 685.9688,460.0703 C685.9688,460.3516 686.1094,460.6016 686.3281,460.7734 C686.4844,460.8828 686.6719,460.9141 687.0938,460.9141 L687.3438,460.9141 L687.3438,467.4297 L687.0938,467.4297 C686.6875,467.4297 686.5313,467.4453 686.375,467.5547 C686.125,467.7266 685.9688,467.9922 685.9688,468.2891 C685.9688,468.5547 686.1094,468.8047 686.3281,468.9609 C686.4688,469.0859 686.7031,469.1328 687.0938,469.1328 L695.0938,469.1328 L695.0938,466.5547 C695.0938,466.1172 695.0625,465.9766 694.9844,465.8203 C694.8125,465.5703 694.5313,465.4141 694.25,465.4141 C693.9844,465.4141 693.7188,465.5234 693.5469,465.7734 C693.4375,465.9297 693.4063,466.0703 693.4063,466.5547 L693.4063,467.4297 L689.0469,467.4297 L689.0469,465.0078 Z " fill="#000000"/><text fill="#000000" font-family="Verdana" font-size="12" font-style="italic" lengthAdjust="spacing" textLength="53" x="760.75" y="460.1387">쳑ecord</text><text fill="#000000" font-family="Verdana" font-size="14" lengthAdjust="spacing" textLength="159" x="707.75" y="475.9639">SettingChangedEvent</text><line style="stroke:#000000;stroke-width:1.0;" x1="624.5" x2="922.5" y1="484.2656" y2="484.2656"/><line style="stroke:#000000;stroke-width:1.0;" x1="624.5" x2="922.5" y1="492.2656" y2="492.2656"/><ellipse cx="634.5" cy="505.9141" fill="#FFFFFF" rx="3" ry="3" style="stroke:#000000;stroke-width:1.0;"/><text fill="#000000" font-family="Verdana" font-size="14" lengthAdjust="spacing" textLength="276" x="641.5" y="509.2607">SettingChangedEvent(Option, String):</text><ellipse cx="634.5" cy="522.2109" fill="#FFFFFF" rx="3" ry="3" style="stroke:#000000;stroke-width:1.0;"/><text fill="#000000" font-family="Verdana" font-size="14" lengthAdjust="spacing" textLength="117" x="641.5" y="525.5576">option(): Option</text><ellipse cx="634.5" cy="538.5078" fill="#FFFFFF" rx="3" ry="3" style="stroke:#000000;stroke-width:1.0;"/><text fill="#000000" font-family="Verdana" font-size="14" lengthAdjust="spacing" textLength="100" x="641.5" y="541.8545">value(): String</text></g><!--class Settings--><g id="elem_Settings"><rect codeLine="28" fill="#FFFFFF" height="190.6719" id="Settings" rx="2.5" ry="2.5" style="stroke:#000000;stroke-width:1.0;" width="471" x="394" y="193"/><ellipse cx="595.25" cy="207" fill="#FFFFFF" rx="9" ry="9" style="stroke:#000000;stroke-width:1.0;"/><path d="M597.5938,202.6719 C596.6563,202.2344 596.0625,202.0938 595.1875,202.0938 C592.5625,202.0938 590.5625,204.1719 590.5625,206.8906 L590.5625,208.0156 C590.5625,210.5938 592.6719,212.4844 595.5625,212.4844 C596.7813,212.4844 597.9375,212.1875 598.6875,211.6406 C599.2656,211.2344 599.5938,210.7813 599.5938,210.3906 C599.5938,209.9375 599.2031,209.5469 598.7344,209.5469 C598.5156,209.5469 598.3125,209.625 598.125,209.8125 C597.6719,210.2969 597.6719,210.2969 597.4844,210.3906 C597.0625,210.6563 596.375,210.7813 595.6094,210.7813 C593.5625,210.7813 592.2656,209.6875 592.2656,207.9844 L592.2656,206.8906 C592.2656,205.1094 593.5156,203.7969 595.25,203.7969 C595.8281,203.7969 596.4375,203.9531 596.9063,204.2031 C597.3906,204.4844 597.5625,204.7031 597.6563,205.1094 C597.7188,205.5156 597.75,205.6406 597.8906,205.7656 C598.0313,205.9063 598.2656,206.0156 598.4844,206.0156 C598.75,206.0156 599.0156,205.875 599.1875,205.6563 C599.2969,205.5 599.3281,205.3125 599.3281,204.8906 L599.3281,203.4688 C599.3281,203.0313 599.3125,202.9063 599.2188,202.75 C599.0625,202.4844 598.7813,202.3438 598.4844,202.3438 C598.1875,202.3438 597.9844,202.4375 597.7656,202.75 L597.5938,202.6719 Z " fill="#000000"/><text fill="#000000" font-family="Verdana" font-size="14" lengthAdjust="spacing" textLength="61" x="612.75" y="211.8467">Settings</text><line style="stroke:#000000;stroke-width:1.0;" x1="395" x2="864" y1="221" y2="221"/><line style="stroke:#000000;stroke-width:1.0;" x1="395" x2="864" y1="229" y2="229"/><ellipse cx="405" cy="242.6484" fill="#FFFFFF" rx="3" ry="3" style="stroke:#000000;stroke-width:1.0;"/><text fill="#000000" font-family="Verdana" font-size="14" lengthAdjust="spacing" textLength="101" x="412" y="245.9951">Settings(File):</text><ellipse cx="405" cy="258.9453" fill="#FFFFFF" rx="3" ry="3" style="stroke:#000000;stroke-width:1.0;"/><text fill="#000000" font-family="Verdana" font-size="14" lengthAdjust="spacing" textLength="418" x="412" y="262.292">addSettingChangedListener(SettingChangeListener): void</text><ellipse cx="405" cy="275.2422" fill="#FFFFFF" rx="3" ry="3" style="stroke:#000000;stroke-width:1.0;"/><text fill="#000000" font-family="Verdana" font-size="14" lengthAdjust="spacing" textLength="447" x="412" y="278.5889">removeSettingChangedListener(SettingChangeListener): void</text><ellipse cx="405" cy="291.5391" fill="#FFFFFF" rx="3" ry="3" style="stroke:#000000;stroke-width:1.0;"/><text fill="#000000" font-family="Verdana" font-size="14" lengthAdjust="spacing" textLength="179" x="412" y="294.8857">set(Option, Object): void</text><ellipse cx="405" cy="307.8359" fill="#FFFFFF" rx="3" ry="3" style="stroke:#000000;stroke-width:1.0;"/><text fill="#000000" font-family="Verdana" font-size="14" lengthAdjust="spacing" textLength="138" x="412" y="311.1826">get(Option): String</text><rect fill="#FFFFFF" height="6" style="stroke:#000000;stroke-width:1.0;" width="6" x="402" y="321.1328"/><text fill="#000000" font-family="Verdana" font-size="14" lengthAdjust="spacing" textLength="386" x="412" y="327.4795">notifyAllSettingChanged(SettingChangedEvent): void</text><ellipse cx="405" cy="340.4297" fill="#FFFFFF" rx="3" ry="3" style="stroke:#000000;stroke-width:1.0;"/><text fill="#000000" font-family="Verdana" font-size="14" lengthAdjust="spacing" textLength="162" x="412" y="343.7764">refreshSettings(): void</text><rect fill="#FFFFFF" height="6" style="stroke:#000000;stroke-width:1.0;" width="6" x="402" y="353.7266"/><text fill="#000000" font-family="Verdana" font-size="14" lengthAdjust="spacing" textLength="81" x="412" y="360.0732">save(): void</text><rect fill="#FFFFFF" height="6" style="stroke:#000000;stroke-width:1.0;" width="6" x="402" y="370.0234"/><text fill="#000000" font-family="Verdana" font-size="14" lengthAdjust="spacing" textLength="79" x="412" y="376.3701">load(): void</text></g><!--reverse link Option to Settings--><g id="link_Option_Settings"><path codeLine="40" d="M771.5,141.063 C771.5,161.418 771.5,169.377 771.5,192.583 " fill="none" id="Option-backto-Settings" style="stroke:#820000;stroke-width:1.0;"/><ellipse cx="771.5" cy="133.063" fill="#FFFFFF" rx="8" ry="8" style="stroke:#820000;stroke-width:1.0;"/><line style="stroke:#820000;stroke-width:1.0;" x1="771.5" x2="771.5" y1="141.063" y2="125.063"/><line style="stroke:#820000;stroke-width:1.0;" x1="763.5" x2="779.5" y1="133.063" y2="133.063"/></g><!--link SettingChangeAdapter to SettingChangeListener--><g id="link_SettingChangeAdapter_SettingChangeListener"><path codeLine="41" d="M206.5,327.136 C206.5,365.083 206.5,404.556 206.5,441.8159 " fill="none" id="SettingChangeAdapter-to-SettingChangeListener" style="stroke:#008200;stroke-width:1.0;stroke-dasharray:7.0,7.0;"/><polygon fill="none" points="206.5,459.8159,212.5,441.8159,200.5,441.8159,206.5,459.8159" style="stroke:#008200;stroke-width:1.0;"/></g><!--link SettingChangedEvent to Option--><g id="link_SettingChangedEvent_Option"><path codeLine="42" d="M896.25,431.72 C896.25,318.193 896.25,73 896.25,73 C896.25,73 890.855,73 875.008,73 " fill="none" id="SettingChangedEvent-Option" style="stroke:#595959;stroke-width:1.0;"/><polygon fill="#595959" points="896.25,443.72,900.25,437.72,896.25,431.72,892.25,437.72,896.25,443.72" style="stroke:#595959;stroke-width:1.0;"/><polygon fill="#595959" points="869.008,73,878.008,77,874.008,73,878.008,69,869.008,73" style="stroke:#595959;stroke-width:1.0;"/><text fill="#000000" font-family="Verdana" font-size="13" lengthAdjust="spacing" textLength="8" x="903.4648" y="433.062">1</text><text fill="#000000" font-family="Verdana" font-size="13" lengthAdjust="spacing" textLength="40" x="877.1297" y="54.0512">option</text><text fill="#000000" font-family="Verdana" font-size="13" lengthAdjust="spacing" textLength="8" x="893.1297" y="69.184">1</text></g><!--link Settings to SettingChangeListener--><g id="link_Settings_SettingChangeListener"><path codeLine="43" d="M397.5,396.281 C397.5,423.15 397.5,432.754 397.5,453.8616 " fill="none" id="Settings-SettingChangeListener" style="stroke:#595959;stroke-width:1.0;"/><polygon fill="#595959" points="397.5,384.281,393.5,390.281,397.5,396.281,401.5,390.281,397.5,384.281" style="stroke:#595959;stroke-width:1.0;"/><polygon fill="#595959" points="397.5,459.8616,401.5,450.8616,397.5,454.8616,393.5,450.8616,397.5,459.8616" style="stroke:#595959;stroke-width:1.0;"/><text fill="#000000" font-family="Verdana" font-size="13" lengthAdjust="spacing" textLength="8" x="378.0688" y="401.3617">1</text><text fill="#000000" font-family="Verdana" font-size="13" lengthAdjust="spacing" textLength="151" x="261.5609" y="433.7551">settingChangeListeners</text><text fill="#000000" font-family="Verdana" font-size="13" lengthAdjust="spacing" textLength="7" x="333.5609" y="448.8879">*</text></g><!--link Settings to SettingChangedEvent--><g id="link_Settings_SettingChangedEvent"><path codeLine="44" d="M744.25,384.281 C744.25,404.752 744.25,419.651 744.25,437.778 " fill="none" id="Settings-to-SettingChangedEvent" style="stroke:#595959;stroke-width:1.0;stroke-dasharray:7.0,7.0;"/><polygon fill="#595959" points="744.25,443.778,748.25,434.778,744.25,438.778,740.25,434.778,744.25,443.778" style="stroke:#595959;stroke-width:1.0;"/><text fill="#000000" font-family="Verdana" font-size="13" lengthAdjust="spacing" textLength="41" x="702.25" y="410.0959">create</text></g><!--SRC=[dLDDQ-Cm4BthLqpTYzh6a2qKTai9bD92OI67z9Qce5gJMBksP2JL49RzHVq9lVMNLR9YEGug-o5Vx7apRzuyZOziYJL2Kp4XYLKDM0NFobfL0nSQ2okK9EQda0tJh8PAIBJR1a5fMof2KBxKS5ye-U23LrVW0wYPBuFP37uHWBEOG4ykeGkqh7h1-Pekh1Pouw9zHeTQ5U8-FRmDHORkPIzNv7UGC6-wZca1-Gwcy-SVRgAHY8ulm8ujgIsWhbDHCMDWWTOwuAPaSeFNd3KMzMxE51HdDliWfwDSVjkYzC9Q9RZh9AIhNBC2nvJVXR4eNJitvv0IRVwN3kv3s2qaSZovktYb-S2SIAF1bWb4dxfC5PmUR8kMxjtcWPLctCNGEr5XJyWu7tVlJQ19Q_e9VQd6MhNulzNEpJXZN9o8RYAwlwGvI6N5UdjTLOk_lemWTQtHbD610Sl1i1P7WKenJeUh9BlbFpnd-VBuw_dKdKdtUwzo61mV7PBSQTTgUJoTUee9PwP4ligVu9ED9AbD0iY-P73gQ2w- -QVNCOCixCcZT7XQFabB_PJGf6IPHtcQ_K7nGGCOoFkXPm3fwIuXUtyjD3ABxs_P1m00]--></g></svg>